<?xml version="1.0" encoding="utf-8"?>
<!-- Generator: Adobe Illustrator 16.0.0, SVG Export Plug-In . SVG Version: 6.00 Build 0)  -->
<!DOCTYPE svg PUBLIC "-//W3C//DTD SVG 1.1//EN" "http://www.w3.org/Graphics/SVG/1.1/DTD/svg11.dtd">
<svg version="1.1" id="Calque_1" xmlns="http://www.w3.org/2000/svg" xmlns:xlink="http://www.w3.org/1999/xlink" x="0px" y="0px"
	 width="2000px" height="2000px" viewBox="0 0 2000 2000" enable-background="new 0 0 2000 2000" xml:space="preserve">
<g>
	<path fill-rule="evenodd" clip-rule="evenodd" d="M1464.962,1629.433c0.288,5.735-4.965,7.396-8.187,9.823
		c-61.635,46.432-129.449,81.491-201.438,108.812c-55.942,21.232-113.696,35.393-173.004,42.58
		c-57.919,7.019-115.927,7.105-174.108,0.937c-134.01-14.21-254.563-63.697-364.756-139.264
		c-81.555-55.928-143.743-129.894-192.389-215.736c-42.07-74.236-73.221-152.446-88.046-236.665
		c-10.53-59.82-12.566-120.019-7.635-180.68c9.945-122.32,51.311-233.056,120.766-333.616
		c34.587-50.078,76.142-93.892,123.415-132.2c4.597-3.725,6.258-7.353,6.246-13.071c-0.195-89.177-0.154-178.355-0.268-267.532
		c-0.026-20.805,11.727-36.039,31.879-41.003c25.396-6.256,46.92-0.079,66.571,17.461
		c74.277,66.295,149.063,132.022,223.663,197.957c1.45,1.281,2.963,2.488,4.446,3.729c-1.824,9.26-7.849,5.685-13.156,4.338
		c-9.362-2.663-15.489-10.988-24.625-14.075c-3.668-1.583-6.977-3.607-8.946-7.273c-7.669-12.637-17.122-23.513-30.699-30.044
		c-2.505-1.205-4.083-2.95-5.836-4.879c-10.16-11.185-22.458-19.161-35.955-26.036c-7.688-3.917-17.284-6.414-20.827-16.792
		c-2.12-6.211-9.564-8.41-14.301-12.823c-13.446-12.525-26.676-25.395-41.757-36.052c-1.142-0.807-1.808-1.716-2.361-2.914
		c-6.096-13.192-6.104-13.188-17.191-22.641c-3.663,21.625-11.458,39.958-33.561,48.399c-21.306,8.136-40.686,4.727-58.125-9.92
		c-2.204,4.503,0.298,5.013,1.781,5.813c4.395,2.372,4.723,5.441,1.004,8.321c-6.201,4.803-6.632,11.117-4.603,17.585
		c2.012,6.412-0.778,12.218-1.121,18.281c-0.929,16.412,4.399,32.038,4.766,48.366c0.897,39.916,3.341,79.681-5.111,119.332
		c-1.938,9.094-2.809,19.529-1.225,29.413c-6.226,20.407-19.096,35.648-36.727,47.19c-3.557,2.91-7.929,4.281-11.962,6.288
		c-13.762,6.853-26.016,15.512-34.651,28.578c-3.736,3.654-7.434,7.344-10.958,11.212c-16.872,17.407-29.221,38.18-43.249,57.712
		c-19.652,27.362-32.858,58.155-47.709,88.081c-7.449,15.011-11.92,31.096-14.701,47.421c-3.994,23.455-11.405,46.104-15.263,69.554
		c-1.051,6.384-3.475,12.731,2.027,18.412c1.41,1.455,1.667,3.754,0.924,5.561c-3.807,9.265-2.207,19.323-4.435,28.833
		c-1.211,5.167-2.203,10.719-6.113,14.104c-7.866,6.809-9.799,15.586-10.992,25.152c-2.457,19.681-4.831,39.4-6.053,59.16
		c-0.882,14.254,2.672,28.388,5.381,42.449c4.063,21.086,9.565,41.582,16.698,61.987c5.368,15.355,8.392,31.956,13.911,47.458
		c5.178,14.539,5.845,29.702,9.29,44.335c3.495,14.847,6.281,29.705,8.24,44.754c0.947,7.271,6.447,8.116,11.636,9.803
		c19.808,4.329,31.589,17.362,37.372,35.945c6.284,20.191,17.183,37.444,29.642,54.357c15.39,20.89,31.279,41.475,45.401,63.296
		c1.242,1.919,2.481,3.809,3.065,6.045c0.487,1.795,0.934,3.605,1.485,5.385c1.664,7.041,7.038,13.424,3.708,21.392
		c-0.463,1.111,0.242,2.65,1.029,3.664c8.144,10.495,13.145,23.043,22.3,32.97c6.09,6.603,9.513,15.381,15.941,21.905
		c3.149,3.195,5.546,7.303,11.029,6.949c3.593-0.23,4.104,2.436,4.055,5.281c-0.081,4.751,2.681,8.398,6.126,10.576
		c15.017,9.494,25.712,25.202,43.707,30.379c2.357,0.68,3.338,2.933,4.766,4.691c6.192,7.629,13.249,14.287,21.985,18.992
		c9.805,5.834,20.93,6.964,31.811,8.241c20.224,2.376,36.569,10.513,47.205,28.503c1.879,3.18,4.851,5.191,8.282,6.479
		c16.379,6.152,32.493,13.094,49.716,16.746c2.517,0.679,5.051,1.268,7.61,1.77c20.244,4.846,40.203,10.874,60.875,13.873
		c5.788,0.84,11.5,2.495,16.667,5.351c8.999,4.972,18.808,7.462,28.79,8.773c19.436,2.552,38.315,7.395,57.116,12.656
		c16.705,4.674,33.721,7.054,51.033,7.327c16.612,0.264,32.856,3.95,49.468,4.707c41.22,1.88,82.324,4.592,123.685,1.788
		c27.594-1.87,55.048-4.532,82.5-7.636c6.003-0.679,11.396-2.251,16.28-5.807c10.592-7.71,22.101-13.809,34.429-18.142
		c9.505-3.342,16.239-9.276,20.204-18.458c3.71-6.777,10.704-8.087,17.157-10.303c28.219-6.238,53.42-20.139,79.637-31.459
		c26.309-11.358,51.788-24.268,75.62-40.302C1458.009,1629.494,1461.099,1626.787,1464.962,1629.433z"/>
	<path fill-rule="evenodd" clip-rule="evenodd" fill="#FF9E05" d="M1464.962,1629.433c-10.343,3.352-18.306,10.83-27.635,15.972
		c-42.874,23.635-87.039,44.297-133.668,59.451c-0.89,0.289-1.92,0.148-2.884,0.207c0.254-5.445,5.104-6.205,8.589-8.006
		c39.146-20.219,76.3-43.54,110.249-71.676c62.236-51.58,113.605-112.155,152.575-183.276
		c37.04-67.601,60.073-139.656,70.959-215.694c5.718-39.948,8.315-80.23,6.472-120.564c-4.399-96.189-27.439-187.647-72.143-273.208
		c-25.726-49.238-57.339-94.361-95.285-135.136c-49.902-53.621-107.001-97.53-171.932-131.443
		c-66.147-34.549-135.996-56.976-210.177-65.729c-9.03-1.066-17.831-3.666-26.989-4.1c-2.305-0.108-5.574-0.464-4.745-4.486
		c3.053-2.486,6.732-2.047,10.271-2.16c55.28-1.775,109.729,4.701,163.401,17.495c88.48,21.092,168.723,60.247,243.032,112.173
		c18.689,13.06,36.322,27.433,53.604,42.248c6.553,7.16,14.801,12.813,19.521,21.641c41.749,47.194,75.903,99.31,102.235,156.606
		c24.142,52.531,39.94,107.706,49.777,164.362c8.572,49.366,10.253,99.382,7.279,149.582
		c-4.028,68.012-17.512,134.043-41.83,197.491c-33.736,88.021-84.23,165.285-153.153,230.17
		C1504.232,1598.537,1485.191,1614.667,1464.962,1629.433z"/>
	<path fill-rule="evenodd" clip-rule="evenodd" fill="#020101" d="M1320.604,371.185c3.124-2.712,6.247-5.425,9.371-8.138
		c9.526-2.511,18.409-6.133,25.27-13.667c2.206-2.422,5.232-4.471,8.46-4.532c11.438-0.213,18.502-7.753,24.939-15.331
		c13.247-15.596,32.017-23.025,48.267-34.155c2.125-1.455,4.739-2.148,7.355-2.469c27.793-3.405,55.124-10.203,83.228-11.34
		c1.293-0.052,2.575-0.375,3.868-0.512c17.478-1.857,18.804-0.485,15.617,16.189c-0.549,2.876-1.722,5.867-1.168,8.665
		c4.412,22.275-4.612,42.829-7.717,64.149c-1.54,10.578-1.767,21.691,0.333,32.074c5.608,27.716,4.958,54.856-4.864,81.379
		c-3.955,10.68-1.553,20.526,1.71,30.252c3.663,10.918,2.351,21.857,2.05,32.84c-0.094,3.403-1.763,6.264-5.523,7.152
		c-0.618,0.001-1.208-0.13-1.735-0.422c-0.789-0.437-1.352-1.221-2.254-1.489c0.354,1.138,1.963,0.571,2.351,1.733
		c5.224,1.535,6.55,5.867,9.095,10.157c10.521,17.726,4.73,36.811,6.108,55.252c0.238,3.191,0.271,6.51-1.505,9.461
		c-7.259,2.073-10.251-5.252-15.729-7.115c-7.073-6.865-17.443-10.61-20.385-21.412c4.379-1.559,5.294-5.781,7.083-9.315
		c0.378-0.748,0.244-0.815-3.334-1.074c-1.832,0.302-3.57,0.215-5.062-1.039c-2.265-1.19-1.043-3.978-2.892-6.041
		c-0.984,3.369,1.643,4.399,2.913,6.062c1.397,3.575,0.037,6.522-2.094,9.3c-7.271,0.982-11.822-2.956-15.468-8.538
		c-1.609-6.259-5.334-8.601-11.604-6.233c-7.024-1.001-13.606-3.461-20.143-6.072c-2.32-4.225-0.233-4.911,3.581-4.803
		c2.944,0.083,6.873,1.347,7.305-3.971c-7.822,7.001-15.696,1.901-23.094-0.186c-8.518-2.405-14.099-11.314-23.885-11.687
		c-3.947-0.149-1.473-5.072-5.577-7.241c-5.662-2.992-11.487-4.498-17.161-6.881c-5.492-2.307-5.952-8.259-4.181-13.511
		c1.839-5.455,6.339-8.667,11.994-7.979c5.235,0.637,3.655,5.646,3.693,9.328c2.236-5.807,0.191-10.871-2.283-16.366
		c-2.478,2.21-3.233,6.68-7.335,6.119c-3.85-0.527-6.812-2.457-6.391-7.006c0.169-1.816-0.408-2.262-2.016-1.848
		c-1.26,0.325-2.443,0.873-3.673,1.29c-2.501,0.848-5.445,1.88-7.007-0.889c-1.33-2.36,1.029-4.226,2.76-5.602
		c3.531-2.808,4.757-5.591,2.115-9.96c-2.68-4.434-1.656-9.409,0.092-15.114c-3.279,1.439-6.309,2.407-8.975,0.01
		c-2.321-2.708-6.393-4.566-4.502-9.303c0.178-0.248,0.41-0.479,0.539-0.759c1.182-2.557,6.45-2.734,4.319-7.13
		c-0.727-1.499-2.766-2.245-4.072-1.507c-4.572,2.585,1.288,5.31,0.142,8.048c-4.703,5.945,1.446,7.916,4.104,11.173
		c1.611,5.037-0.664,6.105-5.353,6.111c-7.942,0.01-9.547,2.654-7.897,12.069c4.717-7.103,9.261-3.3,13.165,0.302
		c5.018,4.628,0.882,7.758-2.393,11.124c-6.456,6.637-12.897,12.151-22.554,5.32c-2.34-1.655-5.06,1.032-7.521,0.41
		c-4.108-1.037-8.299-2.326-7.912-7.965c2.296-2.595,7.285-1.76,8.229-8.413c-2.359,4.705-5.392,6.192-8.094,8.125
		c-10.436-0.396-9.434-11.38-9.52-15.372c-0.178-8.285-3.614-17.002,0.086-25.327c-1.659-0.572-3.123,0.478-4.701,0.58
		c-2.398,0.155-4.808-0.06-5.477-2.809c-0.613-2.523,1.049-4.284,3.021-5.615c1.076-0.726,2.733-0.711,3.477-1.647
		c1.539-1.94,7.908-0.626,4.998-4.584c-2.35-3.193-3.032,2.518-4.926,3.681c-2.006,1.231-3.782,0.772-5.382-0.436
		c-3.647-2.757-6.988-5.829-8.611-10.302c-1.289-3.548-1.599-7.058,1.187-10.045c3.952-4.24,6.072,1.254,9.24,1.972
		c2.669-2.233,1.502-7.208,5.953-8.167c-1.092-1.396-2.908-1.257-3.873-2.363c-4.844-5.56-8.993-4.171-13.747,0.527
		c-2.622,2.592-5.521,8.697-9.922,4.832c-3.736-3.283,0.136-8.58,2.858-10.991c6.398-5.665,7.681-14.642,14.842-19.929
		c7.511-5.545,16.083-5.886,25.865-7.683c-4.507-3.191-10.508-1.859-11.837-7.354c-0.081-0.334-0.305-2.347-1.061-0.326
		c-3.212,8.599-7.949,4.321-11.758,1.038c-5.099-4.396-3.612-9.127,0.722-13.395
		C1319.681,373.626,1320.282,372.471,1320.604,371.185z"/>
	<path fill-rule="evenodd" clip-rule="evenodd" fill="#000201" d="M1337.891,507.813c2.49,4.532,4.576,9.571,11.261,4.763
		c2.27-1.632,4.202-0.425,6.459,1.844c3.745,3.766,8.525,3.885,12.554-0.481c0.876-0.951,1.696-1.96,2.626-2.856
		c8.405-8.101,8.411-8.095-2.086-13.93c-3.379,1.999,1.467,5.473-1.413,7.692c-6.896-4.287-9.814-8.822-4.508-17.021
		c2.773-4.286,4.385-5.782,8.754-3.275c4.881,2.801,5.479-0.237,5.416-4.08c2.718-0.363,6.092,1.116,7.638-2.579
		c0.874-2.09,1.947-3.492,4.218-1.663c1.491,1.203,1.433,2.747,0.505,4.332c-3.562,6.083-4.915,11.862,1.523,17.197
		c2.37,1.964,0.841,4.178-0.925,5.798c-2.557,2.343-5.262,4.523-8.804,7.54c6.863,0.671,11.297-6.632,17.837-1.892
		c1.18,2.343-6.66,3.098-2.551,6.833c1.135,1.032,3.222,2.411,4.174,2.002c3.811-1.633,5.438-4.947,4.017-10.207
		c8.321,8.03,11.383,19.333,7.212,24.526c-1.272,1.586-2.632,4.503-5.29,3.25c-2.975-1.402-1.562-3.667-0.077-5.602
		c1.689-2.203,3.007-5.324,0.65-6.939c-2.902-1.989-5.983,0.192-8.491,2.358c-4.153,3.59-3.449,7.924-1.968,12.379
		c1.522,4.581,6.894,4.794,8.76,3.645c9.866-6.079,7.165,2.17,7.344,6.202c4.048,1.364,6.322-2.983,9.748-1.618
		c0.257,3.228-8.793,11.542,4.777,7.512c3.931-1.167,8.799,6.319,13.176,9.712c6.379,4.944,13.829,3.696,20.443,6.487
		c4.998,2.107,3.212-7.054,7.818-7.969c4.373,11.162,3.238,12.835-8.608,11.898c-2.285-0.181-2.82,0.696-3.053,2.489
		c14.697,7.834,27.14,18.782,39.428,29.718c7.569,6.737,15.784,12.308,24.118,17.865c8.028,11.09,19.42,20.045,22.093,34.576
		c-0.445,2.579-1.313,4.905-3.784,6.255c-34.971-29.242-71.558-56.19-111.084-79.058c-54.089-31.294-110.803-56.396-171.363-72.181
		c-61.627-16.063-124.286-23.586-188.039-20.859c-5.098,4.028-11.193,1.978-16.824,2.745c-9.271,1.263-18.562,2.377-27.843,3.482
		c-25.437,1.093-50.256,6.299-74.978,11.869c-49.099,11.064-96.166,28.142-141.115,50.598
		c-47.889,23.925-92.153,53.511-132.751,88.564c-46.606,40.24-85.929,86.777-120.516,137.51c-2.943,4.318-5.153,9.038-7.802,13.508
		c-1.873,3.161-3.251,7.573-8.604,5.86c-5.228-5.169-2.775-10.736-0.742-16.195c5.151-13.828,14.017-26.094,15.705-41.454
		c1.028-9.352,0.043-18.752,1.719-27.996c0.502-2.758,4.154-5.099,1.099-8.353c-0.504-1.3-0.539-2.615-0.196-3.954
		c3.21-6.662,11.08-10.252,12.044-18.464c0.191-1.631,1.889-2.868,3.568-2.827c1.755,0.043,2.563,1.714,3.35,3.175
		c3.535,6.561-0.768,11.815-3.368,18.153c9.251-4.333,10.198-15.063,20.053-19.813c-6.065-1.342-10.223-1.754-14.015-3.538
		c-7.904-3.72-8.362-6.996-1.349-12.074c1.582-1.146,3.274-2.024,3.436-4.325c-3.425-3.25-12.321-0.598-11.162-6.913
		c1.214-6.61,9.596-8.408,15.352-10.149c5.333-1.611,8.556,4.922,12.299,8.23c2.554,2.258,1.425,5.369-1.763,7.692
		c3.142,0.509,6.227-1.499,8.77,0.081c4.008,2.489-0.599,5.695,0.259,8.764c3.266-1.313,6.04-2.899,5.055-6.96
		c-0.793-3.268-2.276-4.321-6.454-4.216c-4.379,0.111-4.953-8.911-0.391-13.895c5.714-6.243,12.334-12.033,15.932-19.595
		c8.236-17.308,22.866-29.401,34.18-44.165c2.456-3.205,5.325-5.943,9.59-5.935c4.634,0.01,6.811-2.147,8.335-6.432
		c1.968-5.533,6.246-4.718,10.382-2.35c3.574,2.046,7.294,4.069,2.381,8.674c-1.11,1.041,5.256,14.916,6.718,15.236
		c0.225,0.05,0.571,0.131,0.965,0.006c5.144-1.639,4.589-7.604,7.979-10.549c2.815-2.447,9.928-2.356,4.87-9.209
		c-1.547-2.096-1.612-5.116,0.707-7.148c2.576-2.255,5.493-1.787,8.067,0.069c2.432,1.752,4.759,3.359,7.993,2.747
		c4.105-0.777,7.937-1.457,5.804-7.346c-2.316-6.396,1.104-6.783,5.857-4.984c5.189,1.964,9.445,1.725,12.406-3.774
		c1.167-2.168,3.503-3.251,5.874-2.222c7.521,3.266,14.639,0.293,21.878-1c1.28-0.288-0.181-2.196,0.234-0.962
		c0.117,0.347-0.066,0.553-0.548,0.619c-9.618,1.297-13.346-2.334-9.881-10.549c1.904-4.514-1.244-5.75-3.045-8.114
		c-1.371-1.798-3.251-3.492-1.662-6.005c1.741-2.753,4.358-2.794,6.82-1.35c4.031,2.364,8.455,3.512,12.929,4.104
		c7.072,0.936,11.105-2.856,11.538-10.154c0.406-6.857,2.316-8,8.549-4.587c3.61,1.977,6.907,4.501,12.688,3.183
		c-4.229-1.498-6.362-4.038-9.271-5.333c-4.428-1.974-6.78-3.115-2.729-8.977c6.921-10.016,6.291-10.574,14.397-1.276
		c1.496,1.715,2.867,3.534,4.431,5.192c3.837,4.07,7.233,3.701,10.25-0.973c2.841-4.401,5.441-9.2,12.065-7.825
		c2.889,0.7,5.49,2.065,8.056,3.46c6.277,3.414,11.535,2.948,16.305-2.995c7.372-9.181,18.479-11.64,28.953-15.056
		c29.873-9.738,60.715-13.912,91.941-15.871c10.758-0.674,21.334,3.072,32.062,1.523c20.396-2.948,40.891-1.564,61.342-1.75
		c41.008-0.374,81.696,4.071,122.363,8.638c30.73,3.45,60.998,9.471,91.012,16.828c4.699,1.152,9.411,2.271,11.667,3.533
		c-16.636-7.097-35.712-14.254-54.835-21.298c-4.547-1.675-8.936-1.386-13.198,0.841c-5.656,2.955-11.368,2.269-17.007,0.136
		c-6.942-2.625-10.068-6.981-5.826-14.26c36.619-31.049,73.238-62.099,109.857-93.148c2.616,2.468,0.402,4.094-1.144,5.595
		c-5.261,5.107-2.514,8.695,2.308,11.542c3.489,2.062,7.399,3.605,5.431-3.427c-0.71-2.531-0.773-4.803,2.608-4.66
		c1.891,0.079,4.148,1.185,3.399,3.692c-1.944,6.512,2.009,5.717,6.272,6.036c2.732,0.204,7.772,0.145,7.05,4.67
		c-0.552,3.444-4.739,4.084-8.066,3.596c-9.419-1.384-20.072,2.199-23.055,8.539c-4.319,9.181-14.459,14.657-15.465,25.599
		c3.479,0.237,4.084-3.019,6.016-4.463c5.883-4.396,10.998-13.175,18.361-1.582c0.738,1.162,3.542,1.111,5.421,1.417
		c1.643,0.268,3.521,0.38,3.36,2.508c-0.132,1.737-1.68,3.201-3.393,2.686c-4.694-1.409-5.983-0.055-4.79,4.627
		c0.609,2.395-0.485,4.647-3.009,5.334c-2.649,0.721-4.241-1.006-5.187-3.31c-0.585-1.428-0.829-3.692-2.903-2.904
		c-1.811,0.687-2.749,2.836-2.656,4.851c0.297,6.482,5.194,10.165,9.336,14.064c1.991,1.875,3.644,0.184,3.402-2.312
		c-0.243-2.523-1.814-6.041,2.991-4.43c3.192,1.07,7.581,1.873,8.211,5.964c0.5,3.242-2.645,3.987-5.397,4.127
		c-4.664,0.238-8.636,1.549-11.163,5.958c5.32,4.167,8.725-3.385,13.939-0.458c-1.551,5.542-9.47,11.758-0.067,17.364
		c0.075,0.046-1.119,2.106-1.629,3.265C1328.078,491.231,1332.031,503.839,1337.891,507.813z"/>
	<path fill-rule="evenodd" clip-rule="evenodd" fill="#080401" d="M1210.747,464.333c0.637,11.963,10.901,17.705,21.293,11.653
		c4.461-2.597,8.421-3.875,13.693-1.845c22.319,8.593,44.936,16.434,66.421,27.063c0.439,0.218,0.562,1.078,1.26,2.527
		c-15.267-3.46-29.946-6.689-44.578-10.121c-33.403-7.834-67.322-11.765-101.408-15.471c-43.654-4.745-87.373-7.083-131.072-4.99
		c-25.831,1.238-51.64-1.369-77.382,1.445c-28.749,3.142-56.568,10.194-83.73,19.877c-4.456,1.588-9.198,4.1-11.415,8.673
		c-4.643,9.581-11.09,7.983-18.375,3.76c-3.09-1.791-6.338-3.312-9.515-4.954c-8.516-3.08-12.298-10.944-17.559-17.331
		c-3.787-5.049-4.922-11.057-6.222-17.021c0.408-5.534-2.934-12.69,6.201-14.476c4.778,0.502,10.2,5.108,13.759-2.159
		c49.414-10.093,99.3-16.181,149.747-17.004C1059.651,432.691,1135.936,443.031,1210.747,464.333z"/>
	<path fill-rule="evenodd" clip-rule="evenodd" d="M1538.881,664.577c0.713-2.127,1.424-4.253,2.136-6.381
		c4.021-0.499,4.576-2.331,3.835-6.372c-1.381-7.518-6.143-14.908-1.883-22.914c-0.68-9.92,1.604-20.006-1.691-29.792
		c-0.29-0.861-0.429-2.25,0.049-2.824c8.647-10.415-1.567-17.685-3.757-26.484c-1.641-6.595-3.36-12.4-8.272-17.075
		c3.372-0.261,5.672-1.923,5.713-5.418c0.109-9.107,2.759-19.442-0.609-27.083c-7.975-18.088-5.268-34.658,0.686-52.12
		c6.641-19.476,5.13-39.51,1.752-59.436c-2.771-16.356-2.691-32.625,0.414-48.97c1.628-8.57,2.556-17.264,6.456-25.217
		c1.513-3.087,1.858-6.526,1.054-9.549c-3.717-13.961-1.397-27.477,2.896-41.409c-13.959-1.254-27.019,1.503-40.142,2.774
		c-13.336,1.292-26.619,3.133-39.927,4.717c-1.287,0.152-3.449-0.255-3.754,0.34c-4.297,8.388-11.219,3.522-17.131,3.584
		c-6.215,0.065-11.186,3.536-16.037,6.577c-19.003,11.911-37.539,24.479-52.375,41.69c-1.404,1.628-4.055,3.701-5.683,3.372
		c-11.729-2.37-17.078,7.076-24.711,12.466c-5.249,3.707-11.237,5.874-17.924,3.994c28.499-24.553,56.956-49.154,85.514-73.638
		c18.003-15.436,36.011-30.875,54.282-45.991c24.609-20.359,60.214-16.733,80.713,7.824c5.189,6.216,8.004,13.042,7.994,21.322
		c-0.105,88.426-0.038,176.853-0.074,265.28c-0.021,48.432-0.147,96.866-0.226,145.298
		C1551.746,676.953,1545.313,670.765,1538.881,664.577z"/>
	<path fill-rule="evenodd" clip-rule="evenodd" fill="#F7C300" d="M1021.351,496.489c15.632-1.919,31.082-5.949,47.043-4.01
		c15.567,2.465,31.083,5.323,46.708,7.325c47.591,6.096,93.226,19.465,137.725,36.892c58.448,22.89,112.135,54.324,161.065,93.489
		c38.267,30.628,72.716,65.175,102.99,103.991c28.856,36.999,53.515,76.448,73.459,118.776
		c25.09,53.249,42.724,108.863,52.52,167.089c7.667,45.569,11.048,91.364,9.15,137.354c-1.636,39.651-6.833,78.999-15.082,118.003
		c-11.143,52.685-29.275,102.78-53.312,150.698c-22.292,44.441-50.271,85.15-82.659,123.079
		c-45.937,53.794-99.544,98.017-160.271,133.866c-13.078,7.722-26.596,14.701-39.911,22.021c-5.27,2.44-10.538,4.881-15.807,7.321
		c-8.592,7.701-20.079,8.476-30.311,11.604c-12.531,3.832-25.68,6.328-38.938,7.231c-20.823-0.363-41.658,0.201-62.483-0.156
		c-152.113-2.609-287.844-50.16-405.161-148.022c-61.724-51.489-111.239-112.844-149.058-183.79
		c-38.756-72.705-62.193-149.889-70.701-231.872c-11.683-112.587,8.787-219.39,55.71-321.737
		c23.896-52.123,54.701-99.851,92.17-143.142c61.181-70.688,134.468-125.266,219.924-163.431
		c30.338-13.55,61.333-25.296,93.007-35.273C999.656,500.479,1010.6,498.885,1021.351,496.489z"/>
	<path fill-rule="evenodd" clip-rule="evenodd" fill="#020101" d="M818.359,453.123c-6.658,3.869-2.899,10.345-3.908,15.627
		c-5.941,1.131-9.573,3.339-4.258,9.479c2.618,3.024,5.836,6.391,2.182,10.082c-4.115,4.156-7.675,0.217-12.055-3.755
		c3.591,7.12,8.152,9.908,14.109,9.619c6.316-0.306,2.216-7.517,5.883-9.8c5.209,5.858,10.418,11.718,15.627,17.577
		c-5.558,0.143-6.188,5.068-8.185,8.57c-3.948,6.927-8.651,6.507-13.657,1.421c-2.254-2.291-3.735-5.388-6.123-7.49
		c-2.07-1.821-2.576-6.352-6.063-5.387c-4.081,1.129-0.729,4.256-0.634,6.523c0.155,3.734-5.06,0.909-5.249,5.221
		c6.556-1.648,8.741,7.191,15.942,6.168c2.045-0.291,2.557,3.012-0.616,4.559c-6.535,3.183-11.916,1.532-16.792-3.292
		c-1.159-1.147-2.585-2.501-4.2-1.477c-1.495,0.949-1.617,3.003-0.802,4.422c1.581,2.75,4.692,5.805,0.249,7.972
		c-4.495,2.191-8.882,7.565-13.862,5.337c-4.492-2.009-10.604,0.044-13.724-5.421c-0.838-1.47-2.765-1.733-4.261-0.44
		c-1.81,1.564-0.624,2.729,0.642,3.931c3.855,3.662,13.104,6.3,2.35,12.831c-1.533,0.93-0.528,3.365,0.94,4.092
		c2.592,1.287,5.474,5.424,8.25,1.725c2.284-3.044,4.852-3.157,5.909-0.911c1.575,3.349-2.159,3.912-4.552,4.61
		c-7.481,2.18-14.798,6.899-22.818,1.573c-1.781-1.183-3.389-0.362-3.868,1.337c-3.754,13.305-11.658,4.809-18.214,3.65
		c-0.931,4.229,6.937,9.68,1.01,11.863c-4.552,1.677-12.056,7.716-17.148-1.027c-1.385-2.377-3.895-2.578-5.875-0.98
		c-2.333,1.881-0.926,4.271,0.346,6.091c3.496,5.003,8.865,10.136-3.656,9.128c-4.126-0.332-3.249,4.789-4.558,7.549
		c-1.67,3.518-4.162,7.277-8.513,7.045c-4.882-0.261-4.624-4.634-4.609-8.238c0.01-2.514-0.814-4.392-3.154-5.538
		c-12.02-5.886-2.357-6.696,2.559-8.335c-8.464-6.642-8.535-6.672-12.484,2.891c-0.619,1.499-1.485,2.254-2.725,1.964
		c-12.654-2.97-16.223,8.547-22.878,14.684c-6.517,6.008-9.168,15.529-18.31,19.574c-3.423,1.515-1.367,7.035-3.875,10.502
		c-5.885,8.131-11.283,16.597-18.89,23.293c-4.168,3.67-4.363,7.853-2.7,12.688c3.805-0.5,1.32-4.415,4.493-5.524
		c2.48,3.14,2.878,7.827,6.218,10.841c2.221,2.004,0.418,4.528-1.849,5.375c-3.856,1.439-6.455,8.348-10.426,5.407
		c-5.292-3.918,2.784-6.464,3.235-10.939c-5.049-1.375-9.404,2.046-14.409,2.914c0-1.546-0.331-3.056,0.048-3.263
		c8.626-4.704,5.806-8.29-0.249-13.269c-3.246-2.67-4.56-3.66-7.64-0.542c-1.528,1.547-4.027,2.083-5.899,3.354
		c-1.775,1.205-4.748,0.448-5.496,3.312c1.687,3.44,4.905,2.764,7.688,2.69c2.572-0.067,5.236-1.105,6.542,2.274
		c1.297,3.355-2,4.325-3.168,6.428c-1.76,3.168-8.822,0.642-7.374,5.874c1.266,4.568,7.267,3.875,11.037,5.644
		c2.649,1.243,6.352,0.239,11.764,0.239c-5.73,7.927-12.844,12.78-16.318,20.326c-0.443,0.964-3.104,1.186-3.371,3.667
		c-0.47,4.363-4.302,4.127-6.709,3.069c-3.454-1.52-1.087-4.883,0.012-6.565c3.616-5.532,7.359-10.707,0.441-17.851
		c1.081,10.989-7.245,15.063-13.07,20.895c-3.175-4.242-1.418-8.686-0.43-13.036c3.529-15.536,3.055-30.761-3.268-45.566
		c0.423-3.023-1.802-3.929-3.977-4.888c-2.436-1.715-3.972-3.768-2.666-6.911c12.854-5.921,15.249-4.264,17.358,11.875
		c3.542-7.229-6.42-12.957-2.588-20.603c0.465-0.929-1.292,0.368-2.059,0.45c-8.945,0.955-9.917-0.468-6.872-9.39
		c0.897-2.628,2.168-5.213,2.479-8.283c-2.45,1.53-3.51,4.105-5.813,5.417c-5.862,3.338-10.055,1.525-9.292-4.966
		c0.993-8.466-3.863-12.399-9.726-16.215c-1.832-6.153,2.629-13.541-3.703-18.816c-2.233-4.52-1.765-8.931,0.867-13.411
		c-2.896,0.888-2.951,6.711-7.418,3.716c-3.653-2.85-7.458-5.551-1.923-10.279c1.449-1.237,1.234-3.382,1.203-5.442
		c-0.421-27.522,7.914-54.26,7.43-81.798c-0.078-4.477-0.616-8.942-0.839-13.418c-0.646-12.965-2.292-25.991-1.597-38.887
		c0.918-17.029-6.295-33.128-4.352-50.143c0.765-6.691,1.999-13.309,0.266-20.273c-1.899-7.626,0.783-14.062,8.681-16.65
		c-0.608-4.382-3.549-2.931-5.45-3.489c-5.2-1.526-3.802-5.88-2.962-8.845c1.19-4.201,4.271-1.162,6.268-0.283
		c8.218,3.613,14.597,10.279,24.045,12.234c20.712,4.286,47.959-5.891,57.346-24.574c4.352-8.66,4.667-19.348,6.937-29.688
		c7.75,5.587,14.458,12.658,20.86,20.05c1.421,1.64,1.123,3.54,0.506,5.517c-1.099,3.524-0.179,4.393,2.997,2.1
		c1.479-1.068,2.401,0.148,3.091,1.214c10.564,16.316,29.063,24.417,40.924,39.542c3.108,3.963,10.639,4.745,12.547,9.952
		c3.731,10.185,12.807,12.335,20.963,16.106c10.086,4.663,19.097,11.333,27.072,18.591c12.638,11.501,27.887,19.994,38.588,33.708
		c2.404,3.083,5.635,5.489,4.976,9.991c-1.563,3.714,6.275,6.095,1.457,10.27c-2.31,2.136-5.361,1.511-8.07,2.171
		c-1.647,0.403-3.251,1.228-2.568,3.16c0.916,2.591,2.842,1.954,4.482,0.651c2.226-1.769,4.012-4.013,6.094-5.949
		c1.4-2.554,3.686-3.821,6.417-4.444C804.744,440.564,809.58,450.224,818.359,453.123z"/>
	<path fill-rule="evenodd" clip-rule="evenodd" fill="#010201" d="M529.297,595.703c9.274,1.977,14.147,7.855,12.731,15.468
		c-0.431,2.316-2.559,5.436,0.911,6.332c2.548,0.659,5.977-0.357,7.273-3.571c0.864-2.141,1.561-4.126,3.893-5.213
		c2.034-0.948,3.784-1.007,5.151,0.819c1.118,1.492,0.907,3.312-0.64,4.244c-3.221,1.94-3.887,4.42-3.459,8.083
		c0.243,2.087-6.164,3.229-2.131,6.429c2.115,1.679,5.506,0.973,7.826-1.644c1.784-2.014,3.922-1.948,5.823,0.135
		c-10.83,10.236,5.978,20.229-0.439,30.495c-4.037-0.357-5.555-4.596-5.255-7.486c1.221-11.793-4.596-13.532-14.106-11.122
		c-2.047,1.067-3.374-0.186-4.704-1.443c-1.786-2.655-2.534-5.395-0.63-8.298c0.328-0.476,0.89-1.2,0.669-1.583
		c-0.244-0.421-1.058-0.118-1.565,0.452c-2.542,2.169-3.799,5.733-7.467,6.56c-6.208,0.364-11.734-3.219-18.048-2.805
		c-5.514,0.362-8.293,2.526-8.489,8.166c-0.191,5.447,0.584,10.992-1.304,16.317c-21.353,25.376-41.905,51.354-60.045,79.177
		c-53.094,81.428-86.16,170.341-98.293,266.733c-4.338,34.466-6.389,69.323-4.337,104.079
		c4.618,78.271,21.917,153.569,54.241,225.305c16.375,36.338,36.924,70.137,59.201,103.017c3.639,5.372,7.607,10.578,9.795,16.797
		c0.914,2.58,1.727,5.228,4.067,6.997c17.262,20.869,33.704,42.449,53.447,61.153c1.644,1.557,2.903,3.46,3.686,5.626
		c1.089,6.881,6.11,9.487,12.081,11.076c14.812,12.165,28.448,25.632,43.113,37.979c48.904,41.175,103.699,72.599,161.509,99.216
		c69.4,31.953,142.358,51.371,217.882,61.398c41.897,5.563,84.069,8.375,126.34,6.648c38.934-1.591,77.583-6.814,116.277-11.233
		c3.521-0.402,7.174,0.27,10.581-1.121c24.107-2.335,46.898-10.266,70.088-16.502c-0.811,9.274-6.187,15.774-14.172,19.123
		c-15.214,6.382-30.43,12.298-43.543,22.9c-4.979,4.025-12.426,3.339-19.002,4.354c-50.753,7.844-101.835,10.507-152.951,8.358
		c-29.259-1.229-58.702-1.562-87.876-6.725c-14.42-2.552-29.652-1.116-44.352-3.833c-22.262-4.115-43.467-13.453-66.063-15.17
		c-20.868-1.586-38.418-13.268-58.408-16.559c-19.828-3.264-39.118-8.403-58.368-13.896c-8.36-10.384-20.453-16.066-31.21-22.966
		c-16.898-10.836-35.507-18.983-52.278-30.232c-1.357-0.91-3.092-0.962-4.604-1.566c-1.799-0.683-3.363-1.707-4.618-3.174
		c-5.754-12.606-15.617-20.279-28.82-23.925c-2.967-0.514-5.257-2.003-6.745-4.65c-2.212-8.606-9.642-12.445-15.915-17.338
		c-0.708-0.579-1.313-1.25-1.849-1.985c-2.958-9.57-10.223-15-18.539-19.532c-2.188-1.193-4.009-1.83-5.968,0.121
		c-1.495,1.066-3.088,1.686-4.942,1.071c-2.55-1.633-4.272-4.265-6.955-5.751c-3.506-2.805-6.554-6.04-9.155-9.696
		c-2.715-4.243-6.849-6.881-10.921-9.554c-6.609-4.338-12.213-9.726-16.61-16.26c-12.064-17.932-28.13-32.236-42.939-47.682
		c-3.008-3.139-6.519-5.333-10.991-5.609c-0.856-0.188-1.676-0.498-2.468-0.873c-2.097-1.443-3.796-3.356-5.723-5.008
		c-7.789-14.875-19.077-27.367-28.188-41.283c-14.599-22.297-34-41.429-44.242-66.578c-3.287-8.071-6.205-16.291-9.366-24.413
		c-5.647-14.508-16.614-22.601-31.486-25.929c-5.901-6.77-4.276-15.376-5.582-23.249c-0.418-2.526,0.463-5.562-1.686-7.385
		c-5.107-4.334-8.098-8.103,0.776-11.435c1.108-0.417,1.583-2.188,1.319-3.47c-1.856-8.999,0.559-18.542-2.03-27.159
		c-7.704-25.641-10.817-52.458-19.664-77.707c-9.513-27.152-11.49-55.423-12.296-83.526c-0.724-25.288,5.388-50.188,13.16-74.367
		c1.436-4.467,2.596-8.894,1.885-13.363c-2.222-13.992,1.863-27.83,0.219-41.956c-3.212-0.13-7.043,5.99-10.231,0.595
		c-2.358-3.989-0.789-8.017,1.211-12.612c3.332-7.659,7.823-13.963,13.479-19.835c1.779-1.847,2.564-5.095,1.741-7.396
		c-2.875-8.035,0.587-15.403,1.917-22.921c1.421-8.035,3.175-15.531-1.49-23.482c-2.948-5.026,6.486-16.948,12.269-16.733
		c1.796,0.067,3.747,0.875,3.696,2.489c-0.253,8.106,4.341,4.88,8.208,3.806c5.84-1.622,4.071-5.346,2.913-9.253
		c-2.762-9.313-2.215-10.077,6.567-10.881c-7.466-5.833-7.708-7.137-0.984-12.896c1.919-1.643,3.188-2.813,2.926-5.462
		c-0.25-2.547,0.882-4.748,3.755-4.603c9.415,0.474,8.597-6.373,9.582-11.826c-0.949-1.02-1.634-1.256-2.12-0.791
		c-2.946,2.813-5.545,7.504-10.134,2.308c-2.834-3.21-0.841-12.151,3.29-14.659c4.717-2.863,10.313-4.115,14.721-7.574
		c5.583-4.379,5.539-7.109-0.564-10.569c-3.121-1.77-3.083-3.88-2.002-6.468c1.25-2.988,3.573-5.455,4.352-8.694
		c0.261-0.884,0.618-1.728,1.021-2.553c2.605-4.856,4.843-9.769,11.142-11.385c3.943-1.011,6.286-4.385,6.503-8.815
		c0.245-4.983-3.561-4.984-6.875-6.321c-10.279-4.147-10.312-6.311-1.664-13.73c5.411-4.642,10.925-7.302,18.472-6.666
		c8.73,0.737,18.957-7.361,22.178-16.033c2.314-6.229,8.656-9.912,10.609-16.243c1.459-4.728,7.153-11.117-3.706-12.722
		c-2.624-0.387-2.427-3.502-2.442-5.789c-0.024-3.581-0.152-7.164-0.507-10.719c-0.301-3.013-3.182-7.465,1.337-8.25
		c4.996-0.868,9.751-7.543,15.438-2.099c-0.856-2.51-5.103-5.922-1.368-8.577c7.055-5.018,8.98,5.217,15.359,6.34
		c-1.801-5.555,0.841-10.371-1.881-15.951c-2.297-4.707,3.481-6.784,7.655-7.779c3.617-0.862,7.433-1.146,6.249-6.477
		c4.112-6.315,10.876-10.33,16.546-14.173c11.549-7.83,10.854-22.565,20.563-30.749c3.959-2.333,5.201-9.047,12.604-7.025
		c-4.154,4.986-7.021,10.305-4.792,16.791C527.608,584.027,520.739,590.722,529.297,595.703z"/>
	<path fill-rule="evenodd" clip-rule="evenodd" fill="#010205" d="M386.719,765.625c3.894,6.695-5.749,8.55-5.208,13.871
		c2.945,3.81,6.886-5.399,8.68,0.636c1.333,4.479,1.599,9.811-3.207,13.362c-4.201,3.104-8.677,6-13.741,7.029
		c-5.157,1.048-5.791,4.882-7.214,8.62c-1.118,2.933-0.668,5.526,2.248,6.413c2.941,0.894,3.647-1.136,3.567-4.021
		c-0.098-3.526,2.677-4.255,5.424-3.483c4.199,1.181,4.603,5.168,3.169,7.927c-2.396,4.613-1.801,12.49-7.687,13.284
		c-7.017,0.945-7.197-0.393-4.136,6.829c-1.585,2.355-3.55,0.142-5.289,0.448c-2.847,0.503-4.88,2.362-5.137,5.083
		c-0.262,2.793,2.193,3.536,4.57,4.048c2.364,0.509,6.967-1.27,5.104,4.19c-1.498,4.385-4.064,2.96-6.703,0.917
		c-1.341-1.038-3.033-1.388-4.458-0.142c-1.471,1.286-0.976,2.926-0.357,4.481c1.078,2.71,2.155,5.421,3.243,8.127
		c1.801,4.485,1.943,7.549-4.548,7.14c-2.33-0.147-4.779,1.664-7.179,2.566c-2.028,0.763-3.98,2.643-6.238,0.497
		c-2.363-2.247-0.673-4.024,0.619-5.936c1.426-2.108,1.104-3.993-1.728-3.836c-5.944,0.329-12.194,13.627-8.172,18.116
		c3.421,3.819,3.668,7.163,1.842,11.427c-3.047,7.112-0.495,15.543-5.429,22.345c-1.648,2.271,2.485,4.163,2.275,5.738
		c-0.798,5.988,1.104,12.815-6.026,17.065c-6.207,3.699-11.699,8.679-4.129,17.038c-11.839-2.267-7.722,4.942-8.011,9.867
		c5.855,0.208,7.877-4.977,12.326-7.275c2.684,5.991-0.926,11.445-0.575,17.04c0.613,9.779-2.468,19.752-0.345,29.657
		c2.443,11.392-5.927,20.118-7.047,30.663c-2.16,20.364-9.701,40.037-8.549,60.813c1.289,23.23,2.119,46.957,8.657,69.067
		c5.45,18.434,9.818,37.267,15.632,55.646c1.775,5.612,8.021,13.092,1.868,20.421c-0.444,0.529,0.214,2.634,0.969,3.423
		c11.477,11.984,3.472,27.585,7.521,41.054c1.631,5.425-4.671,4.257-8.929,4.67c7.86,3.511,9.238,8.793,8.28,16.737
		c-0.815,6.758,1.886,13.942,3.032,20.938c-14.312-0.225-14.544-10.563-15.794-20.975c-1.125-9.38-1.569-18.847-5.375-27.989
		c-2.775-6.662-3.453-14.456-3.835-21.81c-1.1-21.153-12.174-39.446-16.475-59.563c-5.868-27.444-18.304-53.049-21.38-81.326
		c-1.174-10.787-3.277-21.655-5.082-32.463c-1.95-11.683,1.649-23.178,2.124-34.823c0.589-14.442,3.616-28.773,5.16-43.198
		c0.515-4.811,1.592-9.343,5.407-12.04c10.312-7.291,10.659-18.489,12.207-29.214c0.854-5.912-1.566-12.348,3.344-17.594
		c1.072-1.146,0.847-4.029-0.51-4.376c-8.6-2.2-5.253-9.399-4.316-13.315c8.882-37.064,14.219-74.991,26.187-111.289
		c5.598-16.979,15.504-32.107,22.742-48.346c11.15-25.017,26.64-47.117,42.095-69.397c10.282-14.824,19.558-30.381,33.581-42.202
		c9.249,2.739,8.935-4.085,9.766-9.766c10.213-18.935,28.899-26.571,46.875-35.156c2.787,0.254,4.534,1.709,3.326,4.466
		c-1.15,2.625-2.994,5.589-6.56,4.427c-2.923-0.952-5.12-0.005-7.287,1.407c-0.98,0.638-1.537,1.925-2.286,2.918
		c10.117,2.294,0.415,9.516,3.368,13.516c2.051,2.78,0.898,5.241-1.039,6.909c-2.914,2.506-4.406-1.321-6.551-2.261
		c-0.825-0.363-1.735-1.159-2.039-1.971c-1.25-3.342-3.689-6.683-6.903-4.618c-3.399,2.186,0.879,4.906,1.809,7.402
		c0.947,2.546,1.243,5.046-1.786,7.674c-2.334-18.065-11.409,3.105-16.523-3.837c4.357,4.846,2.693,10.42,2.752,15.092
		c0.071,5.58-0.871,8.97,6.492,6.041c2.865-1.14,4.371,1.457,3.356,4.036c-2.473,6.286-3.105,13.354-7.974,18.657
		c-3.693,4.023-9.016,7.477-5.926,14.384c0.18,0.402-0.265,1.492-0.69,1.697c-7.596,3.65-14.651,12.582-22.15,11.189
		c-13.088-2.431-18.476,5.812-25.997,12.699c5.657-2.389,9.163,7.415,14.686,1.509c2.303,7.852,4.251,17.128-3.748,19.688
		C393.687,756.567,391.077,761.551,386.719,765.625z"/>
	<path fill-rule="evenodd" clip-rule="evenodd" fill="#000205" d="M564.453,1585.938c1.609-0.038,3.065-0.381,3.906-1.953
		c13.48,1.605,19.545,12.646,27.344,21.484c6.461,5.257,13.139,10.299,17.578,17.578c1.092,2.594,3.043,3.899,5.859,3.906
		c3.105,1.873,8.492,1.906,6.426,7.957c-9.167,6.235-19.588,9.719-29.862,13.527c-4.138,0.13-6.614-3.044-8.79-5.503
		c-15.303-17.294-37.587-25.58-53.62-41.966c-4.104-4.195-9.616-6.86-13.667-11.576c-3.012-3.507-2.757-5.905,0.978-11.46
		c-6.428,4.168-9.475,2.78-12.416-1.211c-5.961-8.088-11.714-16.972-18.072-23.947c-9.688-10.63-14.658-23.821-23.868-34.292
		c-2.932-3.333-5.018-7.021-1.663-11.288c2.145-2.728,0.734-5.101-0.894-6.981c-2.595-2.998-2.947-6.35-2.755-9.979
		c1.302-1.249,2.604-1.068,3.906,0c6.451,1.645,11.248,5.538,16.004,10.166c15.144,14.733,28.945,30.53,41.9,47.233
		c7.388,9.526,16.955,17.26,28.033,22.679c2.604,3.255,5.208,6.511,7.813,9.766C561.016,1581.562,562.969,1583.515,564.453,1585.938
		z"/>
	<path fill-rule="evenodd" clip-rule="evenodd" fill="#080301" d="M595.704,1648.438c8.309-7.679,18.985-10.283,29.296-13.672
		c3.391-3.026,5.804-0.479,8.454,1.376c6.177,4.325,10.958,9.906,14.983,16.202c1.301,0.651,2.603,1.302,3.904,1.953
		c23.069,18.961,52.326,27.78,75.746,46.19c2.946,2.315,7.237,3.394,6.288,8.497c-19.646-2.132-36.977-11.43-55.184-17.988
		c-1.93-0.696-3.811-2.737-4.806-4.632c-9.917-18.877-26.481-25.992-46.704-28.483
		C616.747,1656.534,604.832,1656.672,595.704,1648.438z"/>
	<path fill-rule="evenodd" clip-rule="evenodd" fill="#010201" d="M734.375,1708.984c-10.814-11.423-24.811-18.187-38.173-25.813
		c-10.612-6.056-21.671-11.329-32.307-17.348c-4.779-2.705-8.524-6.859-11.554-11.527c13.157,3.07,22.459,13.251,34.502,18.598
		c15.851,7.036,30.058,17.204,44.432,26.882c3.982,2.682,10.014,4.229,8.959,11.161
		C738.087,1710.871,735.78,1711.281,734.375,1708.984z"/>
	<path fill-rule="evenodd" clip-rule="evenodd" fill="#010201" d="M435.547,648.438c2.227,6.119,5.821,12.504-5.48,13.516
		c-3.725,0.333-2.627-2.838-4.286-3.75C428.277,654.188,431.533,650.934,435.547,648.438z"/>
	<path fill-rule="evenodd" clip-rule="evenodd" fill="#000201" d="M794.922,439.453c-1.953,1.302-3.906,2.604-5.859,3.906
		c1.434-3.672-6.146-5.542-1.953-9.766C789.714,435.547,792.317,437.5,794.922,439.453z"/>
	<path fill-rule="evenodd" clip-rule="evenodd" fill="#010201" d="M464.844,1490.234c-1.302,0-2.604,0-3.906,0
		c-1.573-0.841-1.915-2.298-1.953-3.906C461.801,1486.335,463.752,1487.641,464.844,1490.234z"/>
	<path fill-rule="evenodd" clip-rule="evenodd" fill="#080D0D" d="M1519.525,625.008c-12.109-4.418-20.747-13.764-29.888-22.055
		c-10.459-9.489-23.212-16.095-32.611-26.791c7.755-0.212,14.48,3.348,21.489,5.869c4.835,0.1,8.52,2.495,11.714,5.869
		c2.785,5.738,8.795,6.95,13.677,9.746c1.39-0.896,2.427-0.212,3.402,0.755c0.168,0.402,0.336,0.805,0.504,1.208
		c5.724,8.091,14.052,13.319,21.479,19.536C1529.754,627.292,1524.687,626.228,1519.525,625.008z"/>
	<path fill-rule="evenodd" clip-rule="evenodd" fill="#000201" d="M1440.603,499.853c-7.194-4.232-16.686-1.617-20.279-12.29
		c-0.967-2.873-7.373-11.632-13.909-2.136c-1.265,1.836-5.928,2.215-7.256-1.389c-1.189-3.229,2.076-3.14,4.198-3.702
		c6.493-1.718,10.552-4.997,11.106-12.642c0.426-5.841,9.736-8.912,6.283-16.918c-0.336-0.778,2.606-1.905,4.386,0.241
		c4.25,5.124,6.688,5.029,10.997-0.1c1.191-1.419,2.85-2.091,4.267-1.568c2.413,0.889,1.117,4.331,0.753,4.554
		c-8.1,4.97-3.983,16.515-11.984,21.712c-3.263,2.119,0.291,14.911,4.423,16.402
		C1437.035,493.261,1440.266,494.165,1440.603,499.853z"/>
	<path fill-rule="evenodd" clip-rule="evenodd" fill="#05090A" d="M1519.525,625.008c3.604-1.375,8.598-0.432,9.767-5.862
		c4.559,3.255,9.117,6.509,13.677,9.764c0.486,10.493,4.194,20.404,5.949,31.016c-3.361,1.675-5.452-0.955-7.901-1.729
		C1537.635,644.684,1525.403,636.903,1519.525,625.008z"/>
	<path fill-rule="evenodd" clip-rule="evenodd" fill="#000201" d="M1354.767,434.93c4.507,6.905,13.371-5.219,17.678,4.602
		c1.201,2.739,6.415,5.716,3.502,7.784c-3.591,2.549-8.383,5.855-13.948,3.622c-4.495-1.805-10.075-9.031-12.692,2.116
		c-0.072,0.309-6.522,0.793-6.528-1.678c-0.011-4.227-7.218-7.706-2.109-11.509C1344.332,437.138,1349.64,436.617,1354.767,434.93z"
		/>
	<path fill-rule="evenodd" clip-rule="evenodd" fill="#000201" d="M1409.003,444.2c2.369-16.645,2.794-16.952,17.835-16.604
		c3.027,0.069,7.298,1.216,5.56-4.656c-0.155-0.526,0.03-1.32,0.354-1.786c0.905-1.31,2.899-1.372,3.414-0.587
		c3.158,4.826,9.382,5.305,12.808,9.29c1.165,1.355-0.659,4.288-3.26,5.078c-1.397,0.424-3.483-0.82-4.115,1.394
		c-0.733,2.575,0.614,7.169-3.609,6.606c-4.58-0.609-11.703-2.129-12.831-5.102c-4.184-11.046-7.099-2.348-10.271-0.042
		C1413.161,439.045,1411.92,440.963,1409.003,444.2z"/>
	<path fill-rule="evenodd" clip-rule="evenodd" fill="#000201" d="M1480.748,561.407c-2.203,0.855-4.52,0.818-4.724-1.63
		c-0.229-2.748-0.188-5.985,2.068-8.114c2.306-2.174,20.052-2.014,21.936,0.315c1.86,2.301,7.431,3.791,3.073,8.279
		c-3.218,3.314-5.914,8.13-12.133,4.646C1487.841,563.152,1485.238,558.954,1480.748,561.407z"/>
	<path fill-rule="evenodd" clip-rule="evenodd" fill="#000201" d="M1444.664,524.804c-0.706,3.524-4.453,3.275-6.688,4.605
		c-5.794,3.452-11.21-1.507-16.02-3.241c-3.497-1.261,1.814-7.146,2.543-11.146c0.378-2.075,3.119-4.529,4.745-1.112
		c2.249,4.729,5.952,5.452,10.278,5.686C1442.737,519.77,1443.754,522.115,1444.664,524.804z"/>
	<path fill-rule="evenodd" clip-rule="evenodd" fill="#000201" d="M1479.092,468.036c-4.163-2.042-8.18-1.118-12.272,0.351
		c-6.188,2.222-9.724-3.022-13.4-5.982c-2.333-1.878,1.898-5.333,3.496-4.563c7.389,3.562,15.274-0.081,22.773,2.35
		c3.373,1.094,4.144,2.965,4.236,5.322C1484.059,468.89,1481.495,468.675,1479.092,468.036z"/>
	<path fill-rule="evenodd" clip-rule="evenodd" fill="#000201" d="M1367.21,471.175c-7.828,1.999-11.778,3.913-12.535,9.925
		c-0.311,2.479-3.225,4.676-5.065,6.911c-3.236,3.931-5.022-0.339-7.141-1.518c-3.75-2.088-1.692-4.787,0.514-5.932
		c5.49-2.851,10.356-5.873,13.768-11.487C1359.262,464.938,1362.007,468.658,1367.21,471.175z"/>
	<path fill-rule="evenodd" clip-rule="evenodd" fill="#000201" d="M1398.899,470.696c-5.105-0.46-7.376-3.405-6.953-7.773
		c0.369-3.797,1.343-8.013,6.735-7.706c5.683,0.323,7.89,5.557,8.321,9.213C1407.401,467.804,1402.443,469.833,1398.899,470.696z"/>
	<path fill-rule="evenodd" clip-rule="evenodd" fill="#000201" d="M1427.91,533.411c8.863,11.07,11.215-0.62,16.302-1.683
		c2.585-0.54,4.434-4.211,7.033-0.215c2.885,4.433-2.335,5.377-3.877,5.905c-5.34,1.831-8.485,5.417-10.626,10.676
		C1431.913,545.017,1428.973,541.501,1427.91,533.411z"/>
	<path fill-rule="evenodd" clip-rule="evenodd" fill="#000201" d="M1448.449,504.978c4.439,7.801,9.182,8.512,14.747,3.935
		c1.286-1.058,3.154-1.465,4.347,0.077c1.253,1.62-0.374,2.86-1.134,4.218c-3.389,6.064-9.303,5.567-14.385,4.419
		C1446.216,516.314,1446.882,511.479,1448.449,504.978z"/>
	<path fill-rule="evenodd" clip-rule="evenodd" fill="#000201" d="M1460.716,546.242c-1.232,3.703-3.736,7.757-8.632,7.922
		c-3.299,0.111-5.82-3.935-5.253-6.708c0.715-3.496,3.179-6.958,8.119-6.472C1457.96,541.28,1460.923,541.178,1460.716,546.242z"/>
	<path fill-rule="evenodd" clip-rule="evenodd" fill="#000201" d="M1473.702,547.874c-0.946-3.246-2.287-6.448-2.731-9.769
		c-0.397-2.976-1.441-6.469,2.029-8.722c2.303-1.497,3.439-0.018,4.567,1.667c2.262,3.377,5.447,6.707,2.337,11.012
		C1478.371,544.183,1476.042,545.728,1473.702,547.874z"/>
	<path fill-rule="evenodd" clip-rule="evenodd" d="M1531.375,604.632c-1.893-4.908-11.504-4.274-8.697-11.555
		c1.295-3.357,7.752-5.479,9.876-3.546C1536.938,593.524,1534.372,599.217,1531.375,604.632z"/>
	<path fill-rule="evenodd" clip-rule="evenodd" fill="#000201" d="M1458.039,505.197c2.084-4.999,2.006-10.159,9.172-11.185
		c3.954-0.565,7.644-1.476,8.578,2.15c1.216,4.718-4.131,6.845-7.252,6.769C1464.81,502.842,1461.4,502.011,1458.039,505.197z"/>
	<path fill-rule="evenodd" clip-rule="evenodd" fill="#000201" d="M1343.318,407.48c-1.025,4.814-3.619,8.299-6.512,7.51
		c-3.549-0.968-8.314-2.241-9.805-6.39c-0.775-2.155,1.128-6.47,3.632-5.208C1334.699,405.441,1339.458,405.841,1343.318,407.48z"/>
	<path fill-rule="evenodd" clip-rule="evenodd" fill="#000201" d="M1373.8,458.955c4.176,0.176,8.179,1.604,8.134,6.25
		c-0.032,3.308-3.474,6.007-6.911,5.265c-4.096-0.884-7.114-4.364-7.294-8.57C1367.567,458.153,1371.374,459.336,1373.8,458.955z"/>
	<path fill-rule="evenodd" clip-rule="evenodd" fill="#000201" d="M1355.339,426.516c-5.396-1.003-4.005-5.229-6.434-6.988
		c-8.682-6.286-3.5-7.237,3.034-7.86c2.125-0.202,4.477-2.555,6.271-0.278c2.535,3.217-1.011,4.359-2.775,5.93
		C1352.341,420.074,1354.337,423.243,1355.339,426.516z"/>
	<path fill-rule="evenodd" clip-rule="evenodd" fill="#000201" d="M1437.25,479.254c3.744-3.681,6.852-6.166,6.271-10.648
		c-0.224-1.72,0.793-3.262,2.756-3.262c1.951,0,2.473,1.544,2.875,3.246C1450.886,475.9,1446.756,480.273,1437.25,479.254z"/>
	<path fill-rule="evenodd" clip-rule="evenodd" fill="#000201" d="M1515.52,549.514c-0.601,2.857-1.791,5.03-3.818,4.392
		c-4.489-1.413-7.684-4.499-7.644-9.662c0.015-1.875,1.26-4.883,3.006-3.638C1510.468,543.031,1512.974,546.716,1515.52,549.514z"/>
	<path fill-rule="evenodd" clip-rule="evenodd" fill="#000201" d="M1483.859,445.844c-2.225,3.236-4.313,7.248-8.742,7.813
		c-1.942,0.249-4.026-2.272-3.775-4.835c0.498-5.09,4.688-5.375,8.515-6.109C1482.295,442.245,1483.53,443.131,1483.859,445.844z"/>
	<path fill-rule="evenodd" clip-rule="evenodd" d="M1511.719,587.891c2.242-1.009,3.375-5.926,6.75-2.593
		c2.388,2.358-0.095,4.793-1.783,6.53c-2.738,2.815-1.244,10.578-8.873,7.782C1505.083,594.359,1509.189,591.388,1511.719,587.891z"
		/>
	<path fill-rule="evenodd" clip-rule="evenodd" fill="#000201" d="M1449.551,427.593c-1.101-5.394-3.259-10.331,1.584-13.88
		c2.028-1.487,3.924,0.671,4.437,2.243C1457.507,421.889,1454.494,425.504,1449.551,427.593z"/>
	<path fill-rule="evenodd" clip-rule="evenodd" fill="#000201" d="M1414.119,496.236c-0.591,2.308,1.255,6.082-2.176,6.536
		c-3.24,0.429-4.667-3.387-3.015-5.331c2.374-2.792-3.338-8.341,2.631-8.425C1415.353,488.963,1413.526,493.635,1414.119,496.236z"
		/>
	<path fill-rule="evenodd" clip-rule="evenodd" fill="#000201" d="M1432.916,404.387c2.133,1.201,6.107,0.809,5.519,4.867
		c-0.311,2.137-2.296,4.126-4.661,4.103c-3.88-0.039-3.865-3.554-4.51-6.215C1428.48,403.911,1430.946,404.532,1432.916,404.387z"/>
	<path fill-rule="evenodd" clip-rule="evenodd" fill="#000201" d="M1337.911,507.473c2.696-4.784,5.729-8.243,10.579-9.719
		C1345.366,501.543,1350.396,513.82,1337.911,507.473z"/>
	<path fill-rule="evenodd" clip-rule="evenodd" fill="#000201" d="M1490.229,587.9c-4.459-0.849-8.453-2.627-11.714-5.869
		C1484.278,577.446,1487.805,579.212,1490.229,587.9z"/>
	<path fill-rule="evenodd" clip-rule="evenodd" fill="#000201" d="M1499.216,583.583c0.087-3.521,3.474-3.785,5.891-4.798
		c1.638-0.687,3.965,1.099,3.368,2.091c-1.406,2.34-0.67,6.404-4.525,6.904C1501.307,588.123,1499.979,586.27,1499.216,583.583z"/>
	<path fill-rule="evenodd" clip-rule="evenodd" fill="#000201" d="M1511.719,587.891c1.197,4.739-3.867,7.391-3.906,11.719
		c-1.302-0.654-2.604-1.309-3.906-1.963c0.651-3.252,1.302-6.504,1.953-9.756C1507.813,587.891,1509.766,587.891,1511.719,587.891z"
		/>
	<path fill-rule="evenodd" clip-rule="evenodd" fill="#000201" d="M1429.064,503.521c0.053,1.835-0.966,3.342-2.539,3.494
		c-3.335,0.326-5.219-1.925-5.915-4.869c-0.419-1.768,0.985-3.19,2.742-2.892C1425.83,499.675,1428.228,500.677,1429.064,503.521z"
		/>
	<path fill-rule="evenodd" clip-rule="evenodd" fill="#000201" d="M1494.429,493.932c-4.616,2.853-7.9,2.856-10.978,0.806
		c-0.938-0.625-1.117-2.574,0.178-3.318C1487.348,489.284,1490.068,492.184,1494.429,493.932z"/>
	<path fill-rule="evenodd" clip-rule="evenodd" fill="#000201" d="M1342.6,474.976c-2.227-2.802-6.259-4.586-4.754-8.565
		c0.517-1.365,2.776-1.959,4.142-0.838C1345.286,468.28,1343.188,471.713,1342.6,474.976z"/>
	<path fill-rule="evenodd" clip-rule="evenodd" fill="#000201" d="M1389.703,445.394c0.893,3.032,4.306,5.594,1.473,8.751
		c-0.853,0.95-2.512,0.958-3.313-0.224C1385.637,450.637,1388.652,448.133,1389.703,445.394z"/>
	<path fill-rule="evenodd" clip-rule="evenodd" fill="#000201" d="M1376.953,480.469c-6.686-1.102-11.137-3.098-3.906-9.766
		C1374.349,473.958,1375.651,477.214,1376.953,480.469z"/>
	<path fill-rule="evenodd" clip-rule="evenodd" fill="#000201" d="M1491.355,481.503c2.934-1.413,5.633-1.956,7.638,0.657
		c0.529,0.689-0.491,3.833-1.339,4.093C1494.071,487.353,1493.145,484.12,1491.355,481.503z"/>
	<path fill-rule="evenodd" clip-rule="evenodd" fill="#000201" d="M1382.461,442.997c-1.941,0.168-3.188-0.783-3.139-2.655
		c0.049-1.886,1.505-2.644,3.306-2.679c1.742-0.033,3.467,0.413,3.238,2.456C1385.685,441.742,1384.237,442.786,1382.461,442.997z"
		/>
	<path fill-rule="evenodd" clip-rule="evenodd" fill="#000201" d="M1490.813,476.186c-1.988-0.458-3.386-1.089-3.195-2.534
		c0.31-2.337,2.309-2.816,4.322-2.817c1.629-0.001,3.789,0.415,2.907,2.42C1494.211,474.701,1491.935,475.425,1490.813,476.186z"/>
	<path fill-rule="evenodd" clip-rule="evenodd" fill="#000201" d="M1524.79,554.481c-1.403-0.054-2.79-0.532-2.636-2.085
		c0.258-2.6,2.251-2.612,4.356-2.498c1.422,0.079,2.908,0.195,2.631,1.848C1528.771,553.958,1526.493,553.942,1524.79,554.481z"/>
	<path fill-rule="evenodd" clip-rule="evenodd" fill="#000201" d="M1512.884,509.791c0.058,1.94-1.224,2.883-2.799,3.432
		c-1.265,0.44-2.781,0.426-2.8-1.333c-0.019-1.642,0.883-3.139,2.632-3.648C1511.274,507.847,1512.439,508.22,1512.884,509.791z"/>
	<path fill-rule="evenodd" clip-rule="evenodd" fill="#000201" d="M1500.512,570.77c1.421-0.151,2.532,0.307,2.871,1.781
		c0.448,1.951-0.563,3.12-2.413,3.217c-1.34,0.069-2.446-0.795-2.497-2.298C1498.428,572.115,1498.962,571.006,1500.512,570.77z"/>
	<path fill-rule="evenodd" clip-rule="evenodd" fill="#000201" d="M1478.168,482.685c1.748,0.301,3.104,1.291,3.473,2.955
		c0.338,1.522-0.848,2.343-2.291,2.326c-1.941-0.022-2.77-1.549-3.265-3.091C1475.526,483.139,1476.748,482.734,1478.168,482.685z"
		/>
	<path fill-rule="evenodd" clip-rule="evenodd" fill="#000201" d="M1339.825,383.672c-0.604-0.475-2.305-1.172-2.362-1.986
		c-0.134-1.879,1.584-2.528,3.26-2.54c1.404-0.008,2.508,0.745,2.325,2.292C1342.883,382.835,1341.877,383.617,1339.825,383.672z"/>
	<path fill-rule="evenodd" clip-rule="evenodd" fill="#000201" d="M1356.342,454.256c-0.602,1.729-1.973,2.771-3.55,2.076
		c-1.283-0.564-2.139-2.102-3.183-3.207c1.149-0.486,2.261-1.223,3.457-1.401C1354.838,451.458,1355.949,452.495,1356.342,454.256z"
		/>
	<path fill-rule="evenodd" clip-rule="evenodd" fill="#000201" d="M1489.645,530.042c-1.495,0.086-2.465-0.79-2.712-2.07
		c-0.343-1.781,0.597-3.31,2.392-3.302c0.787,0.004,1.948,1.504,2.252,2.528C1491.966,528.512,1490.986,529.554,1489.645,530.042z"
		/>
	<path fill-rule="evenodd" clip-rule="evenodd" fill="#000201" d="M1449.487,492.33c1.163,0.322,2.869,0.277,2.423,2.125
		c-0.347,1.432-1.817,1.618-3.097,1.446c-1.206-0.161-2.876-0.259-2.434-2.094C1446.723,492.38,1448.176,492.278,1449.487,492.33z"
		/>
	<path fill-rule="evenodd" clip-rule="evenodd" fill="#000201" d="M1377.438,427.813c0.436,0.274,1.743,0.681,1.788,1.198
		c0.14,1.587-1.265,2.112-2.563,2.299c-1.32,0.191-2.841,0.007-2.635-1.793C1374.207,427.968,1375.715,427.87,1377.438,427.813z"/>
	<path fill-rule="evenodd" clip-rule="evenodd" fill="#000201" d="M1468.113,410.399c-0.792,1.07-1.194,2.215-1.83,2.363
		c-2.124,0.493-2.813-1.204-3.087-2.809c-0.122-0.718,0.567-1.576,0.89-2.37C1465.345,408.463,1466.603,409.343,1468.113,410.399z"
		/>
	<path fill-rule="evenodd" clip-rule="evenodd" fill="#000201" d="M1399.957,494.626c-1.189,0.502-1.957,1.1-2.715,1.087
		c-1.432-0.022-2.242-1.003-1.499-2.331c0.297-0.528,1.605-0.825,2.336-0.67C1398.704,492.844,1399.162,493.77,1399.957,494.626z"/>
	<path fill-rule="evenodd" clip-rule="evenodd" fill="#000201" d="M1479.016,518.286c0.895,0.636,1.898,0.974,2.164,1.617
		c0.6,1.444-0.388,2.437-1.714,2.474c-0.611,0.017-1.636-1.01-1.769-1.699C1477.58,520.063,1478.435,519.264,1479.016,518.286z"/>
	<path fill-rule="evenodd" clip-rule="evenodd" fill="#000201" d="M1443.388,447.551c1.633-0.008,3.023,0.028,2.978,1.859
		c-0.009,0.372-0.938,1.092-1.32,1.017c-1.243-0.245-2.43-0.783-3.639-1.208C1442.121,448.617,1442.837,448.014,1443.388,447.551z"
		/>
	<path fill-rule="evenodd" clip-rule="evenodd" fill="#F56800" d="M464.844,1453.281c-7.583-11.665-15.108-23.369-22.758-34.989
		c-51.745-78.599-83.714-164.536-96.709-257.747c-6.322-45.348-7.356-90.777-3.309-136.216
		c11.003-123.527,55.569-234.073,130.852-332.358c9.59-12.52,18.37-25.862,31.01-35.79c3.987,4.365,2.831,9.801,2.845,14.864
		c0.107,39.616,0.051,79.232,0.065,118.849c0.001,4.218-0.121,8.446,0.546,12.637c0.939,5.892,3.756,10.32,9.655,12.31
		c5.958,2.01,11.486,1.852,16.13-3.118c1.76-1.884,3.44-3.931,6.077-4.714c14.986-24.71,32.033-47.956,49.629-70.856
		c32.334-42.082,70.234-78.52,112.129-110.821c81.272-62.66,172.574-103.358,273.284-122.723c15.487-2.978,31.06-6.562,47.064-6.121
		c-8.697,4.633-18.485,5.744-27.726,8.618c-71.282,22.175-139.116,51.668-200.318,95.052c-21.128,14.977-41.108,31.34-60.559,48.526
		c-40.388,35.684-74.673,76.439-104.009,121.387c-44.605,68.344-74.687,142.671-89.835,222.958
		c-5.096,27.007-8.085,54.19-10.159,81.631c-1.365,18.063-2.292,36.037-1.226,53.969c3.722,62.539,14.288,123.809,35.503,183.038
		c23.701,66.17,56.917,126.919,101.036,181.745c18.344,22.795,37.615,44.736,59.098,64.519c37.5,34.53,78.11,64.893,122.769,89.826
		c42.397,23.671,86.711,42.55,133.387,55.758c30.455,8.619,61.51,14.488,92.817,19.279c47.403,7.251,95.13,5.154,142.756,6.09
		c-17.676,5.791-36.228,6.826-54.43,9.03c-35.789,4.333-71.791,7.058-107.914,6.193c-127.317-3.046-247.708-32.43-360.106-93.472
		c-30.974-16.823-60.702-35.35-88.73-56.497c-23.235-17.532-45.662-36.196-65.888-57.287c-6.031-2.085-10.092-6.141-12.171-12.177
		c-20.701-20.369-39.62-42.279-56.804-65.689C466.781,1457.597,466.559,1454.916,464.844,1453.281z"/>
	<path fill-rule="evenodd" clip-rule="evenodd" d="M539.246,807.01c-7.217,13.029-10.664,14.671-23.77,11.168
		c-10.397-2.779-11.575-10.977-11.573-19.857c0.013-47.38,0.017-94.76,0.024-142.14c-0.004-6.403,0.127-12.809-0.052-19.206
		c-0.158-5.658,2.375-7.575,7.975-8.254c8.365-1.014,15.496,3.089,23.306,4.091c3.59-0.668,5.975,1.071,7.813,3.906
		c1.302,0.651,2.604,1.302,3.906,1.953c0.007,2.816,1.312,4.768,3.906,5.859c1.289,1.316,3.59,1.618,3.906,3.906
		c-1.282,6.428,4.653,10.217,5.707,16.056c2.759,15.294-2.705,29.663-3.753,44.491c0,1.302,0,2.604,0,3.906
		c1.68,1.953,1.425,3.906,0,5.859c0.269,14.47-0.21,28.774-3.634,43.044c-2.689,11.207-10.75,19.597-13.906,30.504
		C537.581,797.549,536.345,802.111,539.246,807.01z"/>
	<path fill-rule="evenodd" clip-rule="evenodd" fill="#020101" d="M577.733,721.222c0.157,1.987-0.828,3.024-2.735,3.078
		c-1.807,0.05-3.333-0.918-3.367-2.652c-0.016-0.835,1.457-2.126,2.494-2.455C575.713,718.689,577.304,719.186,577.733,721.222z"/>
	<path fill-rule="evenodd" clip-rule="evenodd" fill="#020101" d="M556.641,718.75c0-1.953,0-3.906,0-5.859
		c1.75,0.326,4.583-0.765,4.778,1.835C561.619,717.393,558.416,717.562,556.641,718.75z"/>
	<path fill-rule="evenodd" clip-rule="evenodd" fill="#000201" d="M820.313,484.374c-1.652,4.19,5.38,11.727-4.329,12.653
		c-8.063,0.77-14.17-3.187-17.9-10.445c-1.07-2.082-1.865-4.515,1.202-5.619c2.417-0.871,4.656-0.201,5.202,2.675
		c0.558,2.943,1.675,4.855,5.074,4.386c1.5-0.208,2.46-1.124,2.559-2.46c0.221-2.991-1.777-5.103-4.078-6.105
		c-7.034-3.066-3.104-7.122-1.266-10.941c2.643-5.49,5.128-0.499,7.674,0.233C816.404,473.958,818.358,479.166,820.313,484.374z"/>
	<path fill-rule="evenodd" clip-rule="evenodd" d="M1464.844,984.375c0,32.875-0.148,65.752,0.132,98.624
		c0.052,6.251-0.706,9.047-8.142,8.985c-45.568-0.375-91.142-0.295-136.712-0.06c-6.116,0.031-8.191-1.272-8.15-7.893
		c0.4-64.444,0.167-128.892,0.655-193.335c0.268-35.334,27.938-67.282,62.573-73.616c35.085-6.417,69.948,12.933,83.749,46.186
		c4.054,9.77,6.098,19.661,5.995,30.292C1464.656,923.828,1464.844,954.103,1464.844,984.375z"/>
	<path fill-rule="evenodd" clip-rule="evenodd" d="M1215.043,1331.796c-8.676,13.441-16.489,25.676-25.819,36.958
		c-30.249,36.578-69.659,54.143-116.199,56.861c-25,1.46-50.093,1.634-74.72-4.103c-14.011-3.264-20.348-14.435-15.497-26.127
		c3.418-8.238,11.555-12.604,22.833-10.25c19.949,4.163,40.034,4.116,60.192,3.763c65.374-1.146,107.321-44.967,124.658-97.228
		c1.554-4.682,0.025-6.129-3.621-8.132c-14.21-7.807-28.317-15.811-42.314-23.996c-11.721-6.854-17.645-20.095-14.893-32.294
		c3.175-14.07,13.452-22.464,28.172-24.04c34.729-3.721,69.542-1.444,104.308-1.588c23.48-0.098,36.305,25.263,23.989,45.962
		c-5.863,9.856-15.174,15.856-24.801,21.39c-8.439,4.851-16.884,9.708-25.484,14.26c-4.808,2.545-6.575,5.322-4.14,10.852
		c17.813,40.425,45.639,67.907,91.617,73.393c20.254,2.416,40.174,1.542,60.137-1.974c4.784-0.843,9.886-1.767,14.35,0.767
		c5.354,3.039,8.694,7.525,8.445,14.271c-0.264,7.135-4.064,11.37-10.185,14.02c-7.891,3.415-16.413,3.802-24.767,4.603
		c-30.37,2.913-60.433,1.573-89.227-9.545c-25.641-9.9-45.195-27.673-61.075-49.761
		C1219.309,1337.5,1217.554,1335.188,1215.043,1331.796z"/>
	<path fill-rule="evenodd" clip-rule="evenodd" fill="#020102" d="M1047.137,847.039c14.119,15.847,16.419,35.404,17.486,55.392
		c3.242,60.769,0.578,121.582,1.549,182.366c0.092,5.722-1.729,7.119-7.146,7.1c-45.882-0.174-91.765-0.186-137.646,0.014
		c-5.829,0.025-6.625-2.121-6.783-7.434c-1.854-62.124,0.304-124.255-0.547-186.378c-0.12-8.742,0-17.517,3.603-25.771
		c3.641,2.999,2.44,7,2.321,10.83c-0.785,25.238,0.064,50.462,0.775,75.686c0.027,0.919,0.099,2.04,1.671,2.271
		c2.691-0.934,3.03-2.797,1.181-5.032c-1.895-2.29-3.798-4.527-3.584-7.721c0.313-4.652-1.964-10.617,3.732-13.06
		c6.037-2.588,8.014,3.381,11.193,6.875c13.056,14.345,29.822,22.284,48.736,23.557c24.189,1.628,45-6.759,60.839-25.987
		c3.706-4.5,6.598-9.714,11.064-13.508c2.04-1.732,2.488-3.544,2.442-5.913c-0.434-22.589,2.589-45.729-10.965-66.179
		C1045.653,852.026,1044.708,849.375,1047.137,847.039z"/>
	<path fill-rule="evenodd" clip-rule="evenodd" d="M1047.137,847.039c3.695,11.232,11.007,20.921,12.436,33.256
		c1.728,14.928,0.66,29.795,0.688,44.669c0.007,3.507-5.2,5.48-7.574,8.968c-10.485,15.411-24.482,25.588-43.09,31.433
		c-24.533,7.707-45.035,1.451-64.905-11.652c-4.059-2.677-9.86-3.221-11.72-9.17c-1.121-3.589-2.693-7.574-7.309-8.206
		c-1.828-0.25-3.201,1.405-3.283,2.989c-0.239,4.663-2.36,9.736,1.784,13.74c2.045,1.975,4.513,3.51,7.649,5.899
		c-4.604,2.792-9.412,4.302-12.341,9.246c-0.687-32.285-4.229-64.007-1.82-95.882c8.709-29.498,28.048-48.342,58.328-53.11
		C1004.343,814.752,1029.285,822.77,1047.137,847.039z"/>
	<path fill-rule="evenodd" clip-rule="evenodd" fill="#010000" d="M904.409,1154.363c53.229,5.314,107.7,8.822,159.225,28.904
		c9.136,3.561,17.556,8.354,25.816,13.452c4.29,2.648,8.136,6.523,5.083,12.061c-3.177,5.76-8.471,5.369-13.493,2.444
		c-42.686-24.857-90.254-30.749-138.074-35.674c-13.241-1.364-26.505-2.49-39.74-3.904c-6.258-0.669-14.422,0.157-14.329-9.213
		C888.998,1152.472,897.215,1154.655,904.409,1154.363z"/>
	<path fill-rule="evenodd" clip-rule="evenodd" fill="#010100" d="M1318.381,1208.549c-3.97-0.074-6.965-1.673-8.704-5.224
		c-1.957-3.995,0.196-6.881,2.928-9.384c3.708-3.398,8.604-4.51,13.194-5.783c44.01-12.212,88.846-20.249,134.156-25.614
		c6.598-0.782,16.478-3.29,17.145,7.054c0.684,10.594-9.288,9.142-16.52,10.046c-45.569,5.698-90.77,13.317-134.847,26.595
		C1323.258,1206.984,1320.801,1207.787,1318.381,1208.549z"/>
	<path fill-rule="evenodd" clip-rule="evenodd" fill="#010100" d="M954.768,1212.895c38.758,2.178,79.019,3.185,118.151,13.74
		c7.005,1.891,17.947,2.329,14.454,13.61c-3.092,9.983-11.737,4.499-18.247,2.813c-24.242-6.28-48.988-9.134-73.888-10.752
		c-20.088-1.306-40.186-2.602-60.349-2.225c-6.288,0.119-12.56-1.649-12.263-9.223c0.272-6.95,6.236-8.115,12.253-7.994
		C941.049,1212.992,947.226,1212.895,954.768,1212.895z"/>
	<path fill-rule="evenodd" clip-rule="evenodd" fill="#010100" d="M1414.797,1213.227c1.951,0,3.924-0.185,5.852,0.034
		c5.559,0.631,10.766,2.493,10.416,9.131c-0.313,5.934-5.105,7.666-10.457,7.931c-28.874,1.435-57.744,2.875-86.399,7.102
		c-5.349,0.79-10.123-1.439-10.854-7.285c-0.659-5.265,3.005-8.264,8.013-9.297c16.593-3.42,33.53-3.862,50.313-5.612
		c10.983-1.145,22.08-1.202,33.127-1.746C1414.803,1213.398,1414.799,1213.313,1414.797,1213.227z"/>
	<path fill-rule="evenodd" clip-rule="evenodd" fill="#040400" d="M1020.986,1340.064c-0.037,7.457-6.979,14.665-14.207,14.753
		c-8.033,0.097-14.728-6.95-14.464-15.229c0.233-7.319,6.433-13.239,14.003-13.368
		C1014.157,1326.086,1021.023,1332.566,1020.986,1340.064z"/>
	<path fill-rule="evenodd" clip-rule="evenodd" fill="#030300" d="M1059.814,1323.811c8.15-0.159,14.256,5.82,14.256,13.96
		c0,8.115-5.991,14.255-14.03,14.375c-7.619,0.114-14.557-6.519-14.624-13.984
		C1045.349,1330.798,1052.211,1323.958,1059.814,1323.811z"/>
	<path fill-rule="evenodd" clip-rule="evenodd" fill="#040300" d="M1043.04,1308.061c-7.52,0.054-14.118-6.652-14.127-14.355
		c-0.008-8.323,5.742-14.227,13.893-14.262c8.193-0.035,14.011,5.768,14.087,14.049
		C1056.965,1301.296,1050.584,1308.007,1043.04,1308.061z"/>
	<path fill-rule="evenodd" clip-rule="evenodd" fill="#040300" d="M1114.828,1320.407c7.856-0.041,14.087,6.243,14.088,14.212
		c0.002,7.759-6.644,14.68-13.987,14.564c-7.329-0.113-14.441-7.261-14.446-14.521
		C1100.478,1326.973,1107.043,1320.448,1114.828,1320.407z"/>
	<path fill-rule="evenodd" clip-rule="evenodd" fill="#050400" d="M1112.952,1290.094c0.194,7.549-6.301,14.268-14.052,14.534
		c-7.828,0.271-14.529-6.024-14.634-13.746c-0.103-7.501,6.562-14.581,13.967-14.841
		C1105.545,1275.784,1112.762,1282.675,1112.952,1290.094z"/>
	<path fill-rule="evenodd" clip-rule="evenodd" fill="#040300" d="M1413.1,1328.911c0.014,6.782-6.146,12.733-13.197,12.748
		c-7.241,0.016-12.896-5.481-13.07-12.707c-0.171-7.103,5.474-13.168,12.475-13.404
		C1406.523,1315.304,1413.086,1321.661,1413.1,1328.911z"/>
	<path fill-rule="evenodd" clip-rule="evenodd" fill="#030300" d="M1363.479,1327.564c0.066,7.176-5.595,13.187-12.556,13.331
		c-6.718,0.141-12.86-5.927-13.067-12.908c-0.239-8.044,5.197-13.674,13.041-13.502
		C1358.293,1314.647,1363.409,1319.965,1363.479,1327.564z"/>
	<path fill-rule="evenodd" clip-rule="evenodd" fill="#050400" d="M1314.17,1297.645c-6.919-0.139-13.231-6.553-13.032-13.244
		c0.198-6.641,6.884-12.963,13.509-12.775c6.816,0.193,13.218,6.698,13.052,13.262
		C1327.525,1291.74,1321.117,1297.784,1314.17,1297.645z"/>
	<path fill-rule="evenodd" clip-rule="evenodd" fill="#030300" d="M1299.861,1312.493c7.397-0.06,12.738,5.138,12.939,12.597
		c0.203,7.425-4.934,13.023-12.216,13.316c-7.654,0.308-13.505-5.407-13.445-13.134
		C1287.197,1317.735,1292.354,1312.555,1299.861,1312.493z"/>
	<path fill-rule="evenodd" clip-rule="evenodd" fill="#040300" d="M1378.76,1286.892c-0.201,7.104-6.299,12.834-13.446,12.636
		c-6.776-0.188-13.236-6.821-13.021-13.374c0.22-6.702,6.886-12.836,13.696-12.604
		C1373.096,1273.792,1378.956,1279.915,1378.76,1286.892z"/>
	<path fill-rule="evenodd" clip-rule="evenodd" fill="#000201" d="M737.995,457.675c-1.337,1.765-2.315,4.142-4.081,5.174
		c-4.528,2.649-6.203,5.035-0.438,7.875c3.117,1.535,3.632,3.945,1.885,6.269c-1.982,2.635-3.876,0.485-5.601-1.072
		c-1.862-1.682-4.277-1.212-6.514-1.339c-2.353-0.133-4.937-0.443-5.387-3.114c-0.469-2.79,2.379-2.354,4.028-3.013
		c0.577-0.23,1.585-0.812,1.536-0.977c-5.103-17.135,12.179-11.104,18.042-16.855c3.188-3.127,9.682-0.207,13.553,1.776
		c4.972,2.547,0.675,4.261-2.085,5.183c-7.26,2.424-6.879,6.093-1.146,9.602c3.44,2.105,7.578,3.613,5.763,8.304
		c-0.762,1.968-5.004,4.468-6.585,3.871c-3.867-1.461-8.83-2.153-10.515-7.165C738.98,467.826,740.114,463.324,737.995,457.675z"/>
	<path fill-rule="evenodd" clip-rule="evenodd" d="M543.859,548.865c-3.012-0.804-7.904,0.151-7.683-5.632
		c0.089-2.34-0.004-3.844-2.586-3.985c-2.156-0.118-3.704,0.749-4.18,3.099c-0.444,2.196-0.735,5.15-4.088,2.907
		c-2.222-1.487-2.454-4.201-0.677-5.95c3.383-3.331,5.277-8.929,12.406-6.668c5.048,1.6,10.96,2.001,14.611-4.054
		c0.921-1.527,2.892-1.215,4.37-0.303c1.188,0.734,2.065,2.35,1.116,3.239c-4.645,4.347-6.494,9.771-7.541,15.859
		C549.282,549.269,546.251,548.656,543.859,548.865z"/>
	<path fill-rule="evenodd" clip-rule="evenodd" fill="#000201" d="M643.938,589.278c0.22,1.473-0.435,2.595-1.73,3.065
		c-1.833,0.665-2.872-0.989-4.168-1.809c-6.952-4.394-10.669-12.841-19.315-15.235c-1.734-0.48-1.66-2.845-0.368-4.057
		c1.948-1.826,4.163-4.422,6.433-4.605C628.182,566.362,643.906,585.852,643.938,589.278z"/>
	<path fill-rule="evenodd" clip-rule="evenodd" fill="#000201" d="M796.336,456c-1.524,3.485-7.14,8.491,2.302,8.487
		c1.937,0,2.661,3.236,1.318,4.8c-2.006,2.336-3.781,5.577-7.712,5.147c-2.463-0.268-4.662-1.338-4.42-4.145
		c0.191-2.239,0.843-4.283-0.161-6.587C783.578,454.332,788.609,454.162,796.336,456z"/>
	<path fill-rule="evenodd" clip-rule="evenodd" fill="#000201" d="M776.989,527.323c-3.268-5.121-6.713-9.344-8.623-14.173
		c-0.638-1.612,3.239-6.246,5.869-4.259c2.938,2.219,10.984-0.872,8.699,6.811C781.853,519.34,781.133,523.724,776.989,527.323z"/>
	<path fill-rule="evenodd" clip-rule="evenodd" d="M552.408,515.572c-1.428,4.209-1.98,8.946-8.055,7.775
		c-4.175-0.804-8.728-4.093-7.979-7.084c1.268-5.068,7.78-4.549,12.169-5.635C551.627,509.864,552.62,512.966,552.408,515.572z"/>
	<path fill-rule="evenodd" clip-rule="evenodd" d="M529.297,595.703c-5.366,2.627-8.792,1.123-6.954-4.903
		c1.293-4.241-0.917-10.215,5.001-12.675C535.618,583.138,533.499,589.305,529.297,595.703z"/>
	<path fill-rule="evenodd" clip-rule="evenodd" fill="#000201" d="M783.03,443.217c2.018,1.146,6.274-1.944,5.695,2.036
		c-0.693,4.772-4.739,8.673-9.44,9.375c-4.847,0.723-5.336-4.811-5.174-7.651C774.469,440.704,780.136,444.602,783.03,443.217z"/>
	<path fill-rule="evenodd" clip-rule="evenodd" fill="#000201" d="M628.603,602.257c-3.817-0.26-10.593-12.134-8.909-16.174
		c0.302-0.725,1.282-1.458,2.069-1.628c1.372-0.297,2.386,0.481,2.954,1.837c1.614,3.866,3.254,7.753,7.506,9.516
		c1.956,0.812,2.371,2.141,1.241,3.753C632.381,601.106,631.22,602.833,628.603,602.257z"/>
	<path fill-rule="evenodd" clip-rule="evenodd" fill="#000201" d="M765.663,495.145c5.008,3.318,3.355,6.88,1.067,10.075
		c-2.873,4.012-7.062,6.522-11.651,8.147c-1.625,0.575-2.071-0.978-2.049-2.415c0.022-1.494-1.057-4.504,0.406-4.213
		C762.898,508.62,762.438,499.916,765.663,495.145z"/>
	<path fill-rule="evenodd" clip-rule="evenodd" fill="#000201" d="M704.562,469.899c5.89,2.943,10.424,5.656,9.037,8.478
		c-1.596,3.249-6.592,4.829-11.339,7.939C702.728,480.113,708.004,476.832,704.562,469.899z"/>
	<path fill-rule="evenodd" clip-rule="evenodd" fill="#000201" d="M603.785,582.415c2.931,1.773,6.481,3.461,6.07,6.875
		c-0.359,2.978-3.975,2.57-6.507,2.417c-2.755-0.166-5.437-1.124-4.869-4.46C598.925,584.628,601.187,583.087,603.785,582.415z"/>
	<path fill-rule="evenodd" clip-rule="evenodd" fill="#010201" d="M543.856,591.6c0.749,2.649-0.25,3.995-2.083,3.733
		c-3.426-0.488-6.238-2.579-5.804-6.214c0.251-2.096,0.271-6.249,3.275-6.04C544.78,583.465,541.65,589.525,543.856,591.6z"/>
	<path fill-rule="evenodd" clip-rule="evenodd" d="M656.985,377.28c3.15-1.66,4.254-8.078,8.924-3.891
		c1.842,1.651,3.26,5.138,1.565,6.937C663.108,384.967,661.199,376.876,656.985,377.28z"/>
	<path fill-rule="evenodd" clip-rule="evenodd" fill="#000201" d="M699.958,521.851c2.408-0.071,12.149,10.384,11.643,12.705
		c-0.217,0.995-1.706,1.71-2.617,2.554c-0.16-7.224-8.807-5.896-11.045-10.956C697.021,524.077,697.542,522.367,699.958,521.851z"/>
	<path fill-rule="evenodd" clip-rule="evenodd" fill="#000201" d="M729.618,492.338c0.104,2.748-1.103,3.801-2.239,3.399
		c-4.16-1.472-7.887-3.882-9.619-8.082c-0.539-1.307,1.487-2.957,3.105-2.85C726.165,485.157,725.089,492.217,729.618,492.338z"/>
	<path fill-rule="evenodd" clip-rule="evenodd" fill="#000201" d="M769.386,462.21c0.233,3.109-1.346,5.065-4.276,5.189
		c-3.021,0.129-3.25-2.509-3.317-4.761c-0.065-2.199-0.31-4.932,2.748-5.184C767.589,457.203,769.018,459.348,769.386,462.21z"/>
	<path fill-rule="evenodd" clip-rule="evenodd" fill="#000201" d="M565.316,615.208c6.548-3.294,9.671,2.812,14.133,4.119
		c0.093,0.027,0.002,1.877-0.489,2.48c-1.218,1.493-2.939,1.157-4.287,0.243C571.675,620.02,568.813,617.787,565.316,615.208z"/>
	<path fill-rule="evenodd" clip-rule="evenodd" fill="#000201" d="M603.262,628.321c3.164-4.04,4.544-7.044,4.43-10.688
		c-0.046-1.456,0.86-3.278,2.897-2.972c1.945,0.293,2.585,2.052,1.964,3.605C611.008,622.123,611.031,627.316,603.262,628.321z"/>
	<path fill-rule="evenodd" clip-rule="evenodd" fill="#000201" d="M793.618,498.025c0.203,2.619-1.288,3.464-2.853,3.595
		c-3.566,0.301-5.243-1.793-5.474-5.169c-0.114-1.673,0.29-3.76,2.198-3.472C790.5,493.432,791.972,496.255,793.618,498.025z"/>
	<path fill-rule="evenodd" clip-rule="evenodd" fill="#000201" d="M711.662,500.187c2.386,0.34,4.341,1.135,4.219,3.439
		c-0.148,2.791-2.865,3.233-4.915,3.739c-2.202,0.543-3.806-0.55-3.546-3.083C707.69,501.637,709.582,500.587,711.662,500.187z"/>
	<path fill-rule="evenodd" clip-rule="evenodd" fill="#000201" d="M745.281,547.515c1.851-2.582,2.23-6.997,6.533-5.127
		c1.468,0.638,2.306,2.488,1.607,4.01C751.523,550.53,748.269,548.216,745.281,547.515z"/>
	<path fill-rule="evenodd" clip-rule="evenodd" d="M685.573,377.25c-6.584,3.482-8.68-0.776-9.939-3.879
		c-1.305-3.215,1.375-5.243,3.489-2.022C680.683,373.728,683.182,374.839,685.573,377.25z"/>
	<path fill-rule="evenodd" clip-rule="evenodd" fill="#000201" d="M756.178,492.574c2.242-0.107,3.362,0.91,3.26,2.749
		c-0.156,2.812-1.918,4.687-4.511,5.379c-0.564,0.151-2.339-1.559-2.319-2.382C752.67,495.754,753.683,493.452,756.178,492.574z"/>
	<path fill-rule="evenodd" clip-rule="evenodd" d="M717.132,389.913c-2.91-0.465-2.275-3.275-2.961-5.118
		c-0.694-1.861,0.722-3.206,2.318-3.276c2.654-0.118,3.916,1.833,3.955,4.27C720.477,387.796,719.431,389.351,717.132,389.913z"/>
	<path fill-rule="evenodd" clip-rule="evenodd" fill="#000201" d="M626.308,607.587c-0.491,2.169-1.832,3.344-3.944,3.37
		c-2.478,0.033-3.097-1.692-3.044-3.766c0.056-2.228,1.16-3.596,3.502-3.263C624.853,604.216,626.205,605.41,626.308,607.587z"/>
	<path fill-rule="evenodd" clip-rule="evenodd" fill="#000201" d="M602.622,645.358c-3.071-1.462-4.854-3.059-4.61-5.972
		c0.084-1,0.849-1.601,1.973-1.207C603.296,639.345,604.154,641.571,602.622,645.358z"/>
	<path fill-rule="evenodd" clip-rule="evenodd" fill="#000201" d="M775.942,485.098c4.335,0.24,6.025,2.18,6.69,6.348
		C778.332,491.208,776.661,489.246,775.942,485.098z"/>
	<path fill-rule="evenodd" clip-rule="evenodd" fill="#000201" d="M719.485,544.793c-0.578,1.251-0.816,3.156-2.869,2.929
		c-1.588-0.175-1.635-1.699-1.598-2.944c0.049-1.655,0.409-3.303,2.627-2.877C718.986,542.158,719.77,543.154,719.485,544.793z"/>
	<path fill-rule="evenodd" clip-rule="evenodd" fill="#000201" d="M802.291,449.829c0.058,1.403-0.389,2.518-1.895,2.799
		c-1.974,0.369-3.066-0.671-3.107-2.533c-0.032-1.4,0.934-2.396,2.381-2.409C801.007,447.674,802.126,448.254,802.291,449.829z"/>
	<path fill-rule="evenodd" clip-rule="evenodd" d="M534.634,448.143c-0.661,0.495-1.663,1.849-2.527,1.767
		c-1.739-0.165-2.584-1.759-2.556-3.511c0.022-1.408,0.815-2.637,2.313-2.321C533.503,444.423,534.581,445.675,534.634,448.143z"/>
	<path fill-rule="evenodd" clip-rule="evenodd" fill="#000201" d="M711.838,487.139c1.613,0.677,2.626,1.881,2.344,3.652
		c-0.21,1.326-1.269,2.375-2.665,2.045c-1.797-0.425-2.347-2.043-2.251-3.726C709.352,487.619,710.315,486.941,711.838,487.139z"/>
	<path fill-rule="evenodd" clip-rule="evenodd" fill="#000201" d="M708.913,537.479c-0.458,2.436-1.632,3.359-3.47,3.361
		c-1.604,0.002-3.633-0.028-3.079-2.347c0.382-1.6,2.191-2.436,3.86-2.199C707.157,536.428,708.964,536.046,708.913,537.479z"/>
	<path fill-rule="evenodd" clip-rule="evenodd" fill="#000201" d="M764.524,477.563c-0.6,1.74-1.777,2.587-3.471,2.645
		c-1.848,0.062-2.974-0.988-3.062-2.729c-0.108-2.167,2.077-1.951,3.256-2.268C762.897,474.77,764.088,475.928,764.524,477.563z"/>
	<path fill-rule="evenodd" clip-rule="evenodd" fill="#000201" d="M739.059,538.32c-0.471-0.544-1.639-1.326-1.919-2.352
		c-0.405-1.484,0.815-2.417,2.141-1.809c0.941,0.431,1.77,1.662,2.099,2.709C741.671,537.799,740.838,538.543,739.059,538.32z"/>
	<path fill-rule="evenodd" clip-rule="evenodd" d="M537.49,569.23c1.752-0.334,2.481,0.231,2.031,1.346
		c-0.43,1.064-1.166,2.263-2.11,2.792c-0.987,0.552-1.87-0.531-1.575-1.506C536.161,570.786,537.058,569.883,537.49,569.23z"/>
	<path fill-rule="evenodd" clip-rule="evenodd" fill="#000201" d="M570.955,631.533c0.853,0.698,1.851,1.109,2.061,1.77
		c0.448,1.418-0.516,2.401-1.862,2.315c-0.64-0.04-1.622-1.091-1.695-1.766C569.389,633.214,570.307,632.469,570.955,631.533z"/>
	<path fill-rule="evenodd" clip-rule="evenodd" fill="#010201" d="M554.688,648.438c-1.862-0.742-3.164-2.044-3.906-3.906
		C552.772,645.144,557.359,643.162,554.688,648.438z"/>
	<path fill-rule="evenodd" clip-rule="evenodd" fill="#000201" d="M734.428,484.43c0.545,1.383,1.047,2.11,1.044,2.833
		c-0.003,0.483-0.629,1.185-1.142,1.403c-1.39,0.594-1.766-0.515-1.611-1.468C732.845,486.434,733.568,485.767,734.428,484.43z"/>
	<path fill-rule="evenodd" clip-rule="evenodd" fill="#000201" d="M749.771,484.887c0.552,0.602,1.306,1.322,1.255,1.385
		c-0.534,0.654-1.114,1.505-1.845,1.706c-0.963,0.266-2.091-0.243-1.508-1.52C747.992,485.763,749.044,485.402,749.771,484.887z"/>
	<path fill-rule="evenodd" clip-rule="evenodd" fill="#010201" d="M550.781,1570.313c-2.627,1.052-5.255,2.104-8.846,3.543
		c2.266-7.571-4.206-10.558-8.031-12.916c-12.292-7.58-19.049-19.961-27.759-30.359c-12.505-14.93-26.155-28.307-41.302-40.346
		c9.25-1.845,14.438,4.709,19.527,10.253c14.152,15.417,29.94,29.382,41.309,47.325c3.774,5.959,9.833,10.309,16.043,13.94
		C545.443,1563.929,548.663,1566.504,550.781,1570.313z"/>
	<path fill-rule="evenodd" clip-rule="evenodd" fill="#010201" d="M595.703,1605.469c-9.772-6.324-16.302-16.775-27.344-21.484
		c1.101-2.049,2.816-4.714,5.041-2.974C582.174,1587.876,594.71,1591.486,595.703,1605.469z"/>
	<path fill-rule="evenodd" clip-rule="evenodd" fill="#010201" d="M648.438,1652.344c-4.734-4.408-9.563-8.721-14.167-13.262
		c-2.64-2.604-5.255-4.855-9.271-4.316c0.403-4.372-3.945-5.18-5.859-7.813C630.129,1627.809,645.167,1640.842,648.438,1652.344z"/>
	<path fill-rule="evenodd" clip-rule="evenodd" fill="#010201" d="M613.281,1623.047c-6.644-5.075-12.503-10.935-17.578-17.578
		C603.632,1609.259,611.538,1613.071,613.281,1623.047z"/>
	<path fill-rule="evenodd" clip-rule="evenodd" fill="#020101" d="M542.969,636.719c-2.604-1.302-5.208-2.604-7.813-3.906
		c0.15-3.957,2.727-6.093,5.859-7.813c1.747,0.754,3.026,1.742,1.953,3.906C541.074,631.511,542.894,634.114,542.969,636.719z"/>
	<path fill-rule="evenodd" clip-rule="evenodd" fill="#010201" d="M525.648,1524.676c4.057,4.06,8.113,8.118,12.171,12.177
		C529.443,1537.111,525.385,1533.053,525.648,1524.676z"/>
	<path fill-rule="evenodd" clip-rule="evenodd" d="M542.969,628.906c-0.651-1.302-1.302-2.604-1.953-3.906
		c2.015-2.534,3.824-1.553,4.845,0.704C547.05,628.337,544.758,628.561,542.969,628.906z"/>
	<path fill-rule="evenodd" clip-rule="evenodd" fill="#010201" d="M464.844,1453.281c2.532,1.062,4.022,2.853,4,5.705
		C464.95,1458.881,464.784,1456.16,464.844,1453.281z"/>
	<path fill-rule="evenodd" clip-rule="evenodd" fill="#010201" d="M564.453,1585.938c-2.634-1.272-4.587-3.226-5.859-5.859
		C562.325,1580.253,564.277,1582.207,564.453,1585.938z"/>
	<path fill-rule="evenodd" clip-rule="evenodd" fill="#010201" d="M434.632,675.91c4.995,1.207,6.383,6.964,10.211,10.092
		c0.162,0.133,0.092,0.614,0.051,0.922c-0.206,1.562-1.688,2.66-2.619,2.074c-4.55-2.862-9.584-5.497-11.663-10.813
		C429.939,676.458,432.336,675.95,434.632,675.91z"/>
	<path fill-rule="evenodd" clip-rule="evenodd" fill="#010201" d="M380.331,786.444c-4.501,0.621-7.087-0.286-8.288-3.336
		c-0.25-0.634,1.101-2.701,1.887-2.805C377.868,779.778,377.79,783.705,380.331,786.444z"/>
	<path fill-rule="evenodd" clip-rule="evenodd" fill="#010201" d="M383.438,762.957c0.439-0.464,0.954-1.514,1.619-1.619
		c1.921-0.301,1.561,1.419,1.561,2.457c0,0.489,1.128,2.036-0.805,1.702C384.57,765.282,383.471,764.802,383.438,762.957z"/>
	<path fill-rule="evenodd" clip-rule="evenodd" fill="#010201" d="M603.191,1622.381c-1.037,3.11-4.042,4.788-6.86,5.699
		c-2.774,0.898-5.607-1.825-5.108-4.188c0.711-3.361,4.602-4.063,7.749-4.587C600.929,1618.979,602.875,1619.457,603.191,1622.381z"
		/>
	<path fill-rule="evenodd" clip-rule="evenodd" d="M968.928,969.353c2.091,0.382,3.226,1.767,3.397,3.865
		c0.153,1.867-0.837,3.047-2.739,2.989c-2.364-0.073-3.148-2.004-3.491-3.852C965.749,970.48,967.059,969.575,968.928,969.353z"/>
</g>
</svg>
